# This file uses centimeters as units for non-parametric coordinates.

mtllib Bush.mtl
g default
v -0.762950 0.000001 0.664648
v -0.271171 0.000001 0.801255
v 0.385056 0.000001 0.951085
v -0.706270 0.866105 0.507416
v -0.268900 0.863002 0.614854
v 0.255856 0.852238 0.535025
v -0.631188 1.188787 0.362845
v -0.283897 1.226116 0.369069
v 0.082559 1.187214 0.331436
v -0.650430 1.129988 0.011593
v -0.222201 1.263398 -0.049831
v 0.267285 1.253103 -0.055416
v -0.636519 1.047344 -0.400062
v -0.177488 1.117996 -0.543109
v 0.356545 1.226175 -0.633644
v -0.790305 0.588336 -0.531758
v -0.058407 0.510845 -0.925511
v 0.805812 0.561893 -0.951085
v -0.805883 0.000001 -0.499270
v 0.156173 -0.000001 -0.784525
v 0.948184 -0.000001 -0.666478
v -0.948184 0.000000 0.283428
v 0.867648 -0.000001 0.515750
v 0.743223 0.776784 0.013485
v -0.842936 0.702085 0.090471
vt 0.375000 0.000000
vt 0.500000 0.000000
vt 0.625000 0.000000
vt 0.375000 0.125000
vt 0.500000 0.125000
vt 0.625000 0.125000
vt 0.375000 0.250000
vt 0.500000 0.250000
vt 0.625000 0.250000
vt 0.375000 0.375000
vt 0.500000 0.375000
vt 0.625000 0.375000
vt 0.375000 0.500000
vt 0.500000 0.500000
vt 0.625000 0.500000
vt 0.375000 0.625000
vt 0.500000 0.625000
vt 0.625000 0.625000
vt 0.375000 0.750000
vt 0.500000 0.750000
vt 0.625000 0.750000
vt 0.875000 0.000000
vt 0.750000 0.000000
vt 0.875000 0.125000
vt 0.750000 0.125000
vt 0.875000 0.250000
vt 0.750000 0.250000
vt 0.125000 0.000000
vt 0.250000 0.000000
vt 0.125000 0.125000
vt 0.250000 0.125000
vt 0.125000 0.250000
vt 0.250000 0.250000
vn -0.609076 0.208165 0.765306
vn -0.137101 0.273742 0.951982
vn -0.103414 0.341205 0.934283
vn -0.629906 0.299045 0.716792
vn 0.357143 0.427482 0.830486
vn 0.395322 0.492280 0.775488
vn -0.042206 0.855119 0.516711
vn -0.556774 0.733586 0.389685
vn 0.359408 0.778459 0.514614
vn -0.134553 0.985721 -0.101240
vn -0.691617 0.714202 -0.107621
vn 0.516710 0.851890 0.085404
vn -0.236311 0.670584 -0.703188
vn -0.587639 0.599414 -0.543491
vn 0.362783 0.773702 -0.519398
vn -0.220964 0.056231 -0.973660
vn -0.752493 0.113289 -0.648784
vn 0.726024 0.267133 -0.633664
vn -0.116418 -0.300869 -0.946533
vn -0.784425 -0.085106 -0.614357
vn 0.948289 0.077842 -0.307716
vn 0.829690 0.379035 0.409813
vn 0.868713 0.446846 0.213697
vn -0.986709 0.124022 0.104995
vn -0.980372 0.194320 0.033339
s 1
g Bush
usemtl initialShadingGroup
f 1/1/1 2/2/2 5/5/3 4/4/4
f 2/2/2 3/3/5 6/6/6 5/5/3
f 4/4/4 5/5/3 8/8/7 7/7/8
f 5/5/3 6/6/6 9/9/9 8/8/7
f 7/7/8 8/8/7 11/11/10 10/10/11
f 8/8/7 9/9/9 12/12/12 11/11/10
f 10/10/11 11/11/10 14/14/13 13/13/14
f 11/11/10 12/12/12 15/15/15 14/14/13
f 13/13/14 14/14/13 17/17/16 16/16/17
f 14/14/13 15/15/15 18/18/18 17/17/16
f 16/16/17 17/17/16 20/20/19 19/19/20
f 17/17/16 18/18/18 21/21/21 20/20/19
f 23/23/22 21/22/21 18/24/18 24/25/23
f 3/3/5 23/23/22 24/25/23 6/6/6
f 24/25/23 18/24/18 15/26/15 12/27/12
f 6/6/6 24/25/23 12/27/12 9/9/9
f 19/28/20 22/29/24 25/31/25 16/30/17
f 22/29/24 1/1/1 4/4/4 25/31/25
f 16/30/17 25/31/25 10/33/11 13/32/14
f 25/31/25 4/4/4 7/7/8 10/33/11
