# This file uses centimeters as units for non-parametric coordinates.

mtllib Grass.mtl
g default
v 0.184245 0.000000 0.034123
v 0.211631 0.000000 0.034123
v 0.197447 0.329498 0.026770
v 0.208699 0.332445 0.026770
v 0.197447 0.329498 0.015139
v 0.208699 0.332445 0.015139
v 0.184245 0.000000 0.006737
v 0.211631 0.000000 0.006737
v 0.205056 0.201479 0.062840
v 0.205056 0.201479 0.045957
v 0.221939 0.201479 0.045957
v 0.221939 0.201479 0.062840
v 0.180925 0.100740 0.028502
v 0.180925 0.100740 0.006367
v 0.203060 0.100740 0.006367
v 0.203060 0.100740 0.028502
v 0.025174 0.000000 0.131030
v 0.082380 0.000000 0.131030
v 0.172588 0.759903 0.181726
v 0.196091 0.766059 0.181726
v 0.172588 0.759903 0.157430
v 0.196091 0.766059 0.157430
v 0.025174 0.000000 0.073824
v 0.082380 0.000000 0.073824
v 0.140853 0.420867 0.210988
v 0.140853 0.420867 0.175722
v 0.176119 0.420867 0.175722
v 0.176119 0.420867 0.210988
v 0.116140 0.210433 0.204663
v 0.116140 0.210433 0.158427
v 0.162376 0.210433 0.158427
v 0.162376 0.210433 0.204663
v -0.150907 0.000000 0.131030
v -0.093701 0.000000 0.131030
v -0.097752 0.670431 0.181726
v -0.074248 0.676588 0.181726
v -0.097752 0.670431 0.157430
v -0.074248 0.676588 0.157430
v -0.150907 0.000000 0.073824
v -0.093701 0.000000 0.073824
v -0.129487 0.420867 0.160158
v -0.129487 0.420867 0.124892
v -0.094221 0.420867 0.124892
v -0.094221 0.420867 0.160158
v -0.177880 0.210433 0.204663
v -0.177880 0.210433 0.158427
v -0.131644 0.210433 0.158427
v -0.131644 0.210433 0.204663
v -0.205275 0.000000 0.034123
v -0.177889 0.000000 0.034123
v -0.192073 0.329498 -0.059212
v -0.180821 0.332445 -0.059212
v -0.192073 0.329498 -0.070843
v -0.180821 0.332445 -0.070843
v -0.205275 0.000000 0.006737
v -0.177889 0.000000 0.006737
v -0.221939 0.201479 -0.020483
v -0.221939 0.201479 -0.037366
v -0.205056 0.201479 -0.037366
v -0.205056 0.201479 -0.020483
v -0.208595 0.100740 -0.001824
v -0.208595 0.100740 -0.023959
v -0.186460 0.100740 -0.023959
v -0.186460 0.100740 -0.001824
v -0.070255 0.000000 -0.150652
v -0.034502 0.000000 -0.150652
v -0.067571 0.430177 -0.160252
v -0.052881 0.434025 -0.160252
v -0.067571 0.430177 -0.175437
v -0.052881 0.434025 -0.175437
v -0.070255 0.000000 -0.186406
v -0.034502 0.000000 -0.186406
v -0.082226 0.263041 -0.188946
v -0.082226 0.263041 -0.210988
v -0.060184 0.263042 -0.210988
v -0.060184 0.263042 -0.188946
v -0.048304 0.131521 -0.157991
v -0.048304 0.131521 -0.186889
v -0.019406 0.131521 -0.186889
v -0.019406 0.131521 -0.157991
v -0.123058 0.000000 -0.079405
v -0.077705 0.000000 -0.079405
v -0.071494 0.545673 0.022524
v -0.052860 0.550554 0.022524
v -0.071494 0.545673 0.003262
v -0.052860 0.550554 0.003262
v -0.123058 0.000000 -0.124759
v -0.077705 0.000000 -0.124759
v -0.084935 0.333664 -0.023654
v -0.084935 0.333664 -0.051613
v -0.056976 0.333665 -0.051613
v -0.056976 0.333665 -0.023654
v -0.095213 0.166832 -0.021028
v -0.095213 0.166832 -0.057685
v -0.058557 0.166832 -0.057685
v -0.058557 0.166832 -0.021028
v -0.015175 0.000000 0.043107
v 0.030178 0.000000 0.043107
v 0.036390 0.545673 0.030930
v 0.055023 0.550554 0.030930
v 0.036390 0.545673 0.011667
v 0.055023 0.550554 0.011667
v -0.015175 0.000000 -0.002247
v 0.030178 0.000000 -0.002247
v 0.022948 0.333664 0.090664
v 0.022948 0.333664 0.062705
v 0.050908 0.333665 0.062705
v 0.050908 0.333665 0.090664
v 0.012671 0.166832 0.033797
v 0.012671 0.166832 -0.002859
v 0.049327 0.166832 -0.002859
v 0.049327 0.166832 0.033797
v 0.025174 0.000000 -0.073479
v 0.082380 0.000000 -0.073479
v 0.172588 0.688284 -0.154938
v 0.196091 0.694440 -0.154938
v 0.172588 0.688284 -0.179235
v 0.196091 0.694440 -0.179235
v 0.025174 0.000000 -0.130685
v 0.082380 0.000000 -0.130685
v 0.140853 0.420867 -0.067726
v 0.140853 0.420867 -0.102992
v 0.176119 0.420867 -0.102992
v 0.176119 0.420867 -0.067726
v 0.116140 0.210433 0.000155
v 0.116140 0.210433 -0.046082
v 0.162376 0.210433 -0.046082
v 0.162376 0.210433 0.000155
vt 0.050800 0.730007
vt 0.067294 0.730007
vt 0.067517 0.790678
vt 0.054186 0.790678
vt 0.043673 0.851349
vt 0.033505 0.851349
vt 0.062234 0.930224
vt 0.055229 0.930224
vt 0.211220 0.799565
vt 0.227714 0.799565
vt 0.224328 0.860237
vt 0.210998 0.860237
vt 0.245009 0.920908
vt 0.234841 0.920908
vt 0.223285 0.998008
vt 0.216280 0.998008
vt 0.268397 0.001992
vt 0.302850 0.001992
vt 0.251897 0.128727
vt 0.224051 0.128727
vt 0.241481 0.255462
vt 0.220242 0.255462
vt 0.252498 0.463357
vt 0.237865 0.463357
vt 0.308988 0.001992
vt 0.343441 0.001992
vt 0.387787 0.128727
vt 0.359941 0.128727
vt 0.391596 0.255462
vt 0.370357 0.255462
vt 0.373973 0.459649
vt 0.359341 0.459649
vt 0.844076 0.420302
vt 0.878529 0.420302
vt 0.827576 0.547038
vt 0.799729 0.547038
vt 0.847772 0.673773
vt 0.826533 0.673773
vt 0.828176 0.827782
vt 0.813543 0.827782
vt 0.715110 0.424010
vt 0.749563 0.424010
vt 0.793909 0.550745
vt 0.766063 0.550745
vt 0.767106 0.677480
vt 0.745866 0.677480
vt 0.780095 0.827782
vt 0.765463 0.827782
vt 0.140740 0.732324
vt 0.157234 0.732324
vt 0.175720 0.792995
vt 0.162390 0.792995
vt 0.183795 0.853666
vt 0.173627 0.853666
vt 0.203957 0.932542
vt 0.196952 0.932542
vt 0.298396 0.799565
vt 0.314890 0.799565
vt 0.293240 0.860237
vt 0.279910 0.860237
vt 0.282003 0.920908
vt 0.271835 0.920908
vt 0.258678 0.998008
vt 0.251673 0.998008
vt 0.079920 0.467143
vt 0.101453 0.467143
vt 0.101744 0.546353
vt 0.084340 0.546353
vt 0.116258 0.625562
vt 0.102983 0.625562
vt 0.094847 0.728538
vt 0.085701 0.728538
vt 0.052567 0.467143
vt 0.074100 0.467143
vt 0.069680 0.546352
vt 0.052276 0.546352
vt 0.051036 0.625562
vt 0.037762 0.625562
vt 0.068318 0.726220
vt 0.059173 0.726220
vt 0.585781 0.424010
vt 0.613095 0.424010
vt 0.572699 0.524486
vt 0.550623 0.524486
vt 0.569042 0.624962
vt 0.552204 0.624962
vt 0.535994 0.755586
vt 0.524393 0.755586
vt 0.271530 0.467143
vt 0.298845 0.467143
vt 0.334003 0.567619
vt 0.311926 0.567619
vt 0.332422 0.668095
vt 0.315583 0.668095
vt 0.360233 0.795779
vt 0.348632 0.795779
vt 0.394695 0.463435
vt 0.422009 0.463435
vt 0.422378 0.563911
vt 0.400301 0.563911
vt 0.382891 0.664387
vt 0.366053 0.664387
vt 0.413629 0.795011
vt 0.402028 0.795011
vt 0.209754 0.467143
vt 0.237068 0.467143
vt 0.231462 0.567619
vt 0.209385 0.567619
vt 0.265710 0.668095
vt 0.248871 0.668095
vt 0.229735 0.795779
vt 0.218134 0.795779
vt 0.660248 0.001992
vt 0.694701 0.001992
vt 0.643748 0.128727
vt 0.615901 0.128727
vt 0.678022 0.255462
vt 0.656783 0.255462
vt 0.723940 0.420224
vt 0.709307 0.420224
vt 0.759771 0.001992
vt 0.794224 0.001992
vt 0.838570 0.128727
vt 0.810724 0.128727
vt 0.797689 0.255462
vt 0.776450 0.255462
vt 0.745165 0.416516
vt 0.730532 0.416516
vt 0.434712 0.759372
vt 0.441488 0.759372
vt 0.441488 0.766377
vt 0.434712 0.766377
vt 0.321930 0.799565
vt 0.336085 0.799565
vt 0.336085 0.814198
vt 0.321930 0.814198
vt 0.342268 0.799565
vt 0.356423 0.799565
vt 0.356423 0.814198
vt 0.342268 0.814198
vt 0.447654 0.759372
vt 0.454430 0.759372
vt 0.454430 0.766377
vt 0.447654 0.766377
vt 0.419921 0.798797
vt 0.428768 0.798797
vt 0.428768 0.807943
vt 0.419921 0.807943
vt 0.382943 0.798797
vt 0.394165 0.798797
vt 0.394165 0.810398
vt 0.382943 0.810398
vt 0.401432 0.798797
vt 0.412654 0.798797
vt 0.412654 0.810398
vt 0.401432 0.810398
vt 0.362605 0.799565
vt 0.376761 0.799565
vt 0.376761 0.814198
vt 0.362605 0.814198
vt 0.009240 0.467143
vt 0.025734 0.467143
vt 0.020572 0.527814
vt 0.007241 0.527814
vt 0.031941 0.588485
vt 0.021774 0.588485
vt 0.023968 0.667361
vt 0.017191 0.665586
vt 0.001890 0.810694
vt 0.015220 0.810694
vt 0.020383 0.871365
vt 0.003889 0.871365
vt 0.016422 0.750023
vt 0.026590 0.750023
vt 0.011840 0.672922
vt 0.018616 0.671147
vt 0.001890 0.001992
vt 0.036343 0.001992
vt 0.084520 0.128727
vt 0.056674 0.128727
vt 0.092798 0.255462
vt 0.071558 0.255462
vt 0.104826 0.463357
vt 0.090671 0.459649
vt 0.165943 0.336622
vt 0.193789 0.336622
vt 0.145611 0.463357
vt 0.111158 0.463357
vt 0.180827 0.209887
vt 0.202066 0.209886
vt 0.199939 0.005700
vt 0.214094 0.001992
vt 0.861407 0.001992
vt 0.895860 0.001992
vt 0.873008 0.128727
vt 0.845162 0.128727
vt 0.895546 0.255462
vt 0.874307 0.255462
vt 0.907575 0.409472
vt 0.893420 0.405764
vt 0.884349 0.694003
vt 0.912195 0.694003
vt 0.935046 0.820738
vt 0.900594 0.820738
vt 0.913494 0.567268
vt 0.934733 0.567268
vt 0.932606 0.416966
vt 0.946761 0.413258
vt 0.084217 0.732324
vt 0.100710 0.732324
vt 0.095548 0.792995
vt 0.082217 0.792995
vt 0.084349 0.853666
vt 0.074181 0.853666
vt 0.098944 0.932542
vt 0.092167 0.930767
vt 0.115497 0.871871
vt 0.128828 0.871871
vt 0.133990 0.932542
vt 0.117496 0.932542
vt 0.107461 0.811200
vt 0.117628 0.811200
vt 0.125447 0.734099
vt 0.132224 0.732324
vt 0.172941 0.467143
vt 0.194474 0.467143
vt 0.203565 0.546353
vt 0.186161 0.546353
vt 0.179006 0.625562
vt 0.165732 0.625562
vt 0.183404 0.728538
vt 0.174557 0.726220
vt 0.142508 0.649328
vt 0.159911 0.649328
vt 0.150820 0.728538
vt 0.129287 0.728538
vt 0.122078 0.570119
vt 0.135352 0.570119
vt 0.130904 0.469460
vt 0.139751 0.467143
vt 0.667013 0.424010
vt 0.694327 0.424010
vt 0.705859 0.524486
vt 0.683783 0.524486
vt 0.706811 0.624962
vt 0.689973 0.624962
vt 0.709290 0.755585
vt 0.698068 0.752646
vt 0.635685 0.655110
vt 0.657762 0.655110
vt 0.646229 0.755585
vt 0.618915 0.755585
vt 0.641875 0.554634
vt 0.658714 0.554633
vt 0.649970 0.426950
vt 0.661192 0.424010
vt 0.476295 0.424010
vt 0.503610 0.424010
vt 0.515142 0.524486
vt 0.493065 0.524486
vt 0.516094 0.624962
vt 0.499255 0.624962
vt 0.518573 0.755586
vt 0.507350 0.752646
vt 0.444968 0.655110
vt 0.467044 0.655110
vt 0.455512 0.755585
vt 0.428198 0.755585
vt 0.451158 0.554634
vt 0.467996 0.554633
vt 0.459253 0.426950
vt 0.470475 0.424010
vt 0.397734 0.001992
vt 0.432187 0.001992
vt 0.480365 0.128727
vt 0.452519 0.128727
vt 0.488642 0.255462
vt 0.467402 0.255462
vt 0.500670 0.420224
vt 0.486515 0.416516
vt 0.561603 0.293489
vt 0.589449 0.293489
vt 0.541271 0.420224
vt 0.506818 0.420224
vt 0.576486 0.166754
vt 0.597726 0.166753
vt 0.595599 0.005700
vt 0.609754 0.001992
vn 0.000000 0.055716 0.998447
vn 0.000000 0.055716 0.998447
vn 0.000000 -0.123290 0.992371
vn 0.000000 -0.105629 0.994406
vn -0.253382 0.967366 0.000000
vn -0.253382 0.967366 0.000000
vn -0.253382 0.967366 0.000000
vn -0.253382 0.967366 0.000000
vn -0.000000 0.156654 -0.987654
vn -0.000000 0.173526 -0.984829
vn 0.000000 -0.003672 -0.999993
vn 0.000000 -0.003672 -0.999993
vn 0.996400 0.084781 0.000000
vn 0.996400 0.084781 0.000000
vn 0.999846 -0.017563 0.000000
vn 0.998975 -0.045258 0.000000
vn -0.999457 -0.032939 0.000000
vn -0.999457 -0.032939 0.000000
vn -0.995299 0.096855 0.000000
vn -0.997567 0.069715 0.000000
vn -0.994966 0.100215 0.000000
vn -0.995714 0.092484 0.000000
vn -0.998238 -0.059331 0.000000
vn -0.998238 -0.059331 0.000000
vn 0.024054 -0.229625 -0.972982
vn 0.024054 -0.229625 -0.972982
vn 0.012224 0.080670 -0.996666
vn 0.011299 0.103374 -0.994578
vn 0.999047 -0.043648 0.000000
vn 0.998641 -0.052113 0.000000
vn 0.994929 0.100583 0.000000
vn 0.994929 0.100583 0.000000
vn -0.013256 -0.057545 0.998255
vn -0.014364 -0.034282 0.999309
vn -0.027879 0.266144 0.963530
vn -0.027879 0.266144 0.963530
vn 0.000000 -0.330278 0.943884
vn 0.000000 -0.330278 0.943884
vn -0.000000 -0.182861 0.983139
vn 0.000000 -0.225866 0.974158
vn -0.253382 0.967366 0.000000
vn -0.253382 0.967366 0.000000
vn -0.253382 0.967366 0.000000
vn -0.253382 0.967366 0.000000
vn -0.000000 0.272967 -0.962023
vn -0.000000 0.231983 -0.972720
vn -0.000000 0.373025 -0.927821
vn -0.000000 0.373025 -0.927821
vn 0.934738 -0.355338 0.000000
vn 0.934738 -0.355338 0.000000
vn 0.967555 -0.252660 0.000000
vn 0.976168 -0.217019 0.000000
vn -0.917909 0.396791 0.000000
vn -0.917909 0.396791 0.000000
vn -0.964258 0.264966 0.000000
vn -0.954340 0.298722 0.000000
vn -0.994569 0.104082 0.000000
vn -0.994556 0.104199 0.000000
vn -0.995648 0.093196 0.000000
vn -0.995648 0.093196 0.000000
vn 0.005637 -0.053814 -0.998535
vn 0.005637 -0.053814 -0.998535
vn 0.003145 0.006377 -0.999975
vn 0.002848 0.013522 -0.999905
vn 0.998126 -0.061199 0.000000
vn 0.998128 -0.061165 0.000000
vn 0.998330 -0.057761 0.000000
vn 0.998331 -0.057761 0.000000
vn -0.004555 0.028598 0.999581
vn -0.005028 0.034697 0.999385
vn -0.008997 0.085892 0.996264
vn -0.008997 0.085892 0.996264
vn 0.000000 -0.330278 0.943884
vn 0.000000 -0.330278 0.943884
vn 0.000000 -0.101687 0.994816
vn 0.000000 -0.111738 0.993738
vn -0.253379 0.967367 0.000000
vn -0.253379 0.967367 0.000000
vn -0.253379 0.967367 0.000000
vn -0.253379 0.967367 0.000000
vn -0.000000 0.162768 -0.986664
vn 0.000000 0.152203 -0.988349
vn -0.000000 0.373025 -0.927821
vn -0.000000 0.373025 -0.927821
vn 0.984130 0.177447 0.000000
vn 0.984130 0.177447 0.000000
vn 0.999455 0.033012 0.000000
vn 0.999904 0.013863 0.000000
vn -0.991885 -0.127138 0.000000
vn -0.991885 -0.127138 0.000000
vn -0.999257 0.038544 0.000000
vn -0.999821 0.018899 0.000000
vn -0.983877 0.178848 0.000000
vn -0.983493 0.180949 0.000000
vn -0.992012 0.126144 0.000000
vn -0.992012 0.126144 0.000000
vn -0.013522 0.129085 -0.991541
vn -0.013522 0.129085 -0.991541
vn -0.006853 -0.013835 -0.999881
vn -0.005563 -0.041113 -0.999139
vn 0.991313 -0.131527 0.000000
vn 0.991603 -0.129318 0.000000
vn 0.996964 -0.077864 0.000000
vn 0.996964 -0.077864 0.000000
vn 0.003677 0.089502 0.995980
vn 0.004532 0.061776 0.998080
vn 0.009006 -0.085972 0.996257
vn 0.009006 -0.085972 0.996257
vn -0.000000 0.336078 0.941834
vn -0.000000 0.336078 0.941834
vn -0.000000 0.277061 0.960852
vn -0.000000 0.266937 0.963714
vn -0.253382 0.967366 0.000000
vn -0.253382 0.967366 0.000000
vn -0.253382 0.967366 0.000000
vn -0.253382 0.967366 0.000000
vn 0.000000 -0.219343 -0.975648
vn 0.000000 -0.229960 -0.973200
vn 0.000000 -0.291472 -0.956579
vn 0.000000 -0.291472 -0.956579
vn 0.996400 0.084780 0.000000
vn 0.996400 0.084780 0.000000
vn 0.990871 0.134815 0.000000
vn 0.992720 0.120446 0.000000
vn -0.999457 -0.032939 0.000000
vn -0.999457 -0.032939 0.000000
vn -0.997617 -0.069000 0.000000
vn -0.996494 -0.083665 0.000000
vn -0.997890 0.064930 0.000000
vn -0.999877 0.015661 0.000000
vn -0.973851 0.227189 0.000000
vn -0.973851 0.227189 0.000000
vn 0.026759 -0.255445 -0.966453
vn 0.026759 -0.255445 -0.966453
vn 0.012906 -0.191775 -0.981354
vn 0.012482 -0.189813 -0.981741
vn 0.999471 0.032527 0.000000
vn 0.999857 -0.016896 0.000000
vn 0.983307 -0.181953 0.000000
vn 0.983307 -0.181953 0.000000
vn -0.014306 0.233905 0.972154
vn -0.014783 0.235622 0.971732
vn -0.030617 0.292274 0.955845
vn -0.030617 0.292274 0.955845
vn 0.000000 0.055715 0.998447
vn 0.000000 0.055715 0.998447
vn 0.000000 0.128118 0.991759
vn -0.000000 0.135686 0.990752
vn -0.253378 0.967367 0.000000
vn -0.253378 0.967367 0.000000
vn -0.253378 0.967367 0.000000
vn -0.253378 0.967367 0.000000
vn 0.000000 -0.084573 -0.996417
vn -0.000000 -0.076733 -0.997052
vn -0.000000 -0.003672 -0.999993
vn -0.000000 -0.003672 -0.999993
vn 0.993478 -0.114027 0.000000
vn 0.993478 -0.114027 0.000000
vn 0.996516 0.083407 0.000000
vn 0.998588 0.053116 0.000000
vn -0.986356 0.164628 0.000000
vn -0.986356 0.164628 0.000000
vn -1.000000 -0.000864 0.000000
vn -0.999498 -0.031693 0.000000
vn -0.995650 -0.093177 0.000000
vn -0.995595 -0.093760 0.000000
vn -0.996178 0.087346 0.000000
vn -0.996178 0.087346 0.000000
vn -0.021692 0.207088 -0.978082
vn -0.021692 0.207088 -0.978082
vn -0.009823 -0.008279 -0.999918
vn -0.011272 0.017542 -0.999783
vn 0.990215 0.139551 0.000000
vn 0.990315 0.138838 0.000000
vn 0.999089 -0.042672 0.000000
vn 0.999089 -0.042672 0.000000
vn 0.009085 0.029062 0.999536
vn 0.007925 0.055145 0.998447
vn 0.017643 -0.168427 0.985556
vn 0.017643 -0.168427 0.985556
vn 0.000000 -0.330278 0.943884
vn 0.000000 -0.330278 0.943884
vn -0.000000 -0.178861 0.983874
vn -0.000000 -0.196881 0.980428
vn -0.253380 0.967367 0.000000
vn -0.253380 0.967367 0.000000
vn -0.253380 0.967367 0.000000
vn -0.253380 0.967367 0.000000
vn 0.000000 0.245095 -0.969499
vn 0.000000 0.227879 -0.973690
vn 0.000000 0.373025 -0.927821
vn 0.000000 0.373025 -0.927821
vn 0.993478 -0.114027 0.000000
vn 0.993478 -0.114027 0.000000
vn 0.997237 -0.074280 0.000000
vn 0.998061 -0.062239 0.000000
vn -0.986356 0.164628 0.000000
vn -0.986356 0.164628 0.000000
vn -0.993504 0.113794 0.000000
vn -0.992083 0.125582 0.000000
vn -0.998060 0.062260 0.000000
vn -0.998051 0.062400 0.000000
vn -0.997996 0.063272 0.000000
vn -0.997996 0.063272 0.000000
vn -0.026064 0.248817 -0.968200
vn -0.026064 0.248817 -0.968200
vn -0.012907 0.141786 -0.989813
vn -0.012279 0.136668 -0.990541
vn 0.999897 -0.014376 0.000000
vn 0.999907 -0.013643 0.000000
vn 0.999820 -0.018973 0.000000
vn 0.999820 -0.018973 0.000000
vn 0.010386 -0.090690 0.995825
vn 0.010922 -0.096189 0.995303
vn 0.022137 -0.211322 0.977166
vn 0.022137 -0.211322 0.977166
vn 0.000000 0.055715 0.998447
vn 0.000000 0.055715 0.998447
vn 0.000000 -0.125955 0.992036
vn 0.000000 -0.105080 0.994464
vn -0.253381 0.967367 0.000000
vn -0.253381 0.967367 0.000000
vn -0.253381 0.967367 0.000000
vn -0.253381 0.967367 0.000000
vn -0.000000 0.155912 -0.987771
vn -0.000000 0.176293 -0.984338
vn -0.000000 -0.003672 -0.999993
vn -0.000000 -0.003672 -0.999993
vn 0.993478 -0.114027 0.000000
vn 0.993478 -0.114027 0.000000
vn 0.997182 -0.075015 0.000000
vn 0.997938 -0.064180 0.000000
vn -0.986356 0.164628 0.000000
vn -0.986356 0.164628 0.000000
vn -0.993289 0.115662 0.000000
vn -0.991989 0.126324 0.000000
vn -0.998057 0.062315 0.000000
vn -0.998053 0.062366 0.000000
vn -0.997996 0.063272 0.000000
vn -0.997996 0.063272 0.000000
vn 0.024345 -0.232400 -0.972316
vn 0.024345 -0.232400 -0.972316
vn 0.012079 0.086589 -0.996171
vn 0.011484 0.101061 -0.994814
vn 0.999899 -0.014214 0.000000
vn 0.999903 -0.013921 0.000000
vn 0.999820 -0.018972 0.000000
vn 0.999820 -0.018972 0.000000
vn -0.013488 -0.054657 0.998414
vn -0.014178 -0.040279 0.999088
vn -0.028210 0.269297 0.962644
vn -0.028210 0.269297 0.962644
vn 0.000000 -0.330278 0.943884
vn 0.000000 -0.330278 0.943884
vn -0.000000 -0.005607 0.999984
vn -0.000000 -0.100597 0.994927
vn -0.253382 0.967367 0.000000
vn -0.253382 0.967367 0.000000
vn -0.253382 0.967367 0.000000
vn -0.253382 0.967367 0.000000
vn -0.000000 0.151173 -0.988507
vn 0.000000 0.058288 -0.998300
vn -0.000000 0.373025 -0.927821
vn -0.000000 0.373025 -0.927821
vn 0.934738 -0.355338 0.000000
vn 0.934738 -0.355338 0.000000
vn 0.971197 -0.238277 0.000000
vn 0.972141 -0.234396 0.000000
vn -0.917909 0.396791 0.000000
vn -0.917909 0.396791 0.000000
vn -0.959529 0.281609 0.000000
vn -0.958539 0.284960 0.000000
vn -0.993094 0.117322 0.000000
vn -0.993120 0.117100 0.000000
vn -0.993032 0.117845 0.000000
vn -0.993032 0.117845 0.000000
vn 0.028673 -0.273719 -0.961382
vn 0.028673 -0.273719 -0.961382
vn 0.014358 -0.267434 -0.963469
vn 0.012722 -0.266712 -0.963692
vn 0.997675 -0.068147 0.000000
vn 0.997579 -0.069545 0.000000
vn 0.997346 -0.072810 0.000000
vn 0.997346 -0.072810 0.000000
vn -0.014379 0.308150 0.951229
vn -0.016205 0.308292 0.951154
vn -0.032422 0.309507 0.950344
vn -0.032422 0.309507 0.950344
s 1
g Grass
usemtl initialShadingGroup
f 1/161/1 2/162/2 16/163/3 13/164/4
s off
f 3/129/5 4/130/6 6/131/7 5/132/8
s 2
f 14/169/9 15/170/10 8/171/11 7/172/12
s 3
f 2/1/13 8/2/14 15/3/15 16/4/16
s 4
f 7/9/17 1/10/18 13/11/19 14/12/20
f 10/14/21 9/13/22 3/15/23 5/16/24
s 2
f 5/175/25 6/176/26 11/174/27 10/173/28
s 3
f 12/6/29 11/5/30 6/7/31 4/8/32
s 1
f 9/166/33 12/165/34 4/167/35 3/168/36
s 4
f 14/12/20 13/11/19 9/13/22 10/14/21
s 2
f 10/173/28 11/174/27 15/170/10 14/169/9
s 3
f 16/4/16 15/3/15 11/5/30 12/6/29
s 1
f 13/164/4 16/163/3 12/165/34 9/166/33
s 5
f 17/177/37 18/178/38 32/179/39 29/180/40
s off
f 19/133/41 20/134/42 22/135/43 21/136/44
s 6
f 30/185/45 31/186/46 24/187/47 23/188/48
s 7
f 18/17/49 24/18/50 31/19/51 32/20/52
s 8
f 23/25/53 17/26/54 29/27/55 30/28/56
f 26/30/57 25/29/58 19/31/59 21/32/60
s 6
f 21/191/61 22/192/62 27/190/63 26/189/64
s 7
f 28/22/65 27/21/66 22/23/67 20/24/68
s 5
f 25/182/69 28/181/70 20/183/71 19/184/72
s 8
f 30/28/56 29/27/55 25/29/58 26/30/57
s 6
f 26/189/64 27/190/63 31/186/46 30/185/45
s 7
f 32/20/52 31/19/51 27/21/66 28/22/65
s 5
f 29/180/40 32/179/39 28/181/70 25/182/69
s 9
f 33/193/73 34/194/74 48/195/75 45/196/76
s off
f 35/137/77 36/138/78 38/139/79 37/140/80
s 10
f 46/201/81 47/202/82 40/203/83 39/204/84
s 11
f 34/33/85 40/34/86 47/35/87 48/36/88
s 12
f 39/41/89 33/42/90 45/43/91 46/44/92
f 42/46/93 41/45/94 35/47/95 37/48/96
s 10
f 37/207/97 38/208/98 43/206/99 42/205/100
s 11
f 44/38/101 43/37/102 38/39/103 36/40/104
s 9
f 41/198/105 44/197/106 36/199/107 35/200/108
s 12
f 46/44/92 45/43/91 41/45/94 42/46/93
s 10
f 42/205/100 43/206/99 47/202/82 46/201/81
s 11
f 48/36/88 47/35/87 43/37/102 44/38/101
s 9
f 45/196/76 48/195/75 44/197/106 41/198/105
s 13
f 49/209/109 50/210/110 64/211/111 61/212/112
s off
f 51/141/113 52/142/114 54/143/115 53/144/116
s 14
f 62/217/117 63/218/118 56/219/119 55/220/120
s 15
f 50/49/121 56/50/122 63/51/123 64/52/124
s 16
f 55/57/125 49/58/126 61/59/127 62/60/128
f 58/62/129 57/61/130 51/63/131 53/64/132
s 14
f 53/223/133 54/224/134 59/222/135 58/221/136
s 15
f 60/54/137 59/53/138 54/55/139 52/56/140
s 13
f 57/214/141 60/213/142 52/215/143 51/216/144
s 16
f 62/60/128 61/59/127 57/61/130 58/62/129
s 14
f 58/221/136 59/222/135 63/218/118 62/217/117
s 15
f 64/52/124 63/51/123 59/53/138 60/54/137
s 13
f 61/212/112 64/211/111 60/213/142 57/214/141
s 17
f 65/225/145 66/226/146 80/227/147 77/228/148
s off
f 67/145/149 68/146/150 70/147/151 69/148/152
s 18
f 78/233/153 79/234/154 72/235/155 71/236/156
s 19
f 66/65/157 72/66/158 79/67/159 80/68/160
s 20
f 71/73/161 65/74/162 77/75/163 78/76/164
f 74/78/165 73/77/166 67/79/167 69/80/168
s 18
f 69/239/169 70/240/170 75/238/171 74/237/172
s 19
f 76/70/173 75/69/174 70/71/175 68/72/176
s 17
f 73/230/177 76/229/178 68/231/179 67/232/180
s 20
f 78/76/164 77/75/163 73/77/166 74/78/165
s 18
f 74/237/172 75/238/171 79/234/154 78/233/153
s 19
f 80/68/160 79/67/159 75/69/174 76/70/173
s 17
f 77/228/148 80/227/147 76/229/178 73/230/177
s 21
f 81/241/181 82/242/182 96/243/183 93/244/184
s off
f 83/149/185 84/150/186 86/151/187 85/152/188
s 22
f 94/249/189 95/250/190 88/251/191 87/252/192
s 23
f 82/81/193 88/82/194 95/83/195 96/84/196
s 24
f 87/89/197 81/90/198 93/91/199 94/92/200
f 90/94/201 89/93/202 83/95/203 85/96/204
s 22
f 85/255/205 86/256/206 91/254/207 90/253/208
s 23
f 92/86/209 91/85/210 86/87/211 84/88/212
s 21
f 89/246/213 92/245/214 84/247/215 83/248/216
s 24
f 94/92/200 93/91/199 89/93/202 90/94/201
s 22
f 90/253/208 91/254/207 95/250/190 94/249/189
s 23
f 96/84/196 95/83/195 91/85/210 92/86/209
s 21
f 93/244/184 96/243/183 92/245/214 89/246/213
s 25
f 97/257/217 98/258/218 112/259/219 109/260/220
s off
f 99/153/221 100/154/222 102/155/223 101/156/224
s 26
f 110/265/225 111/266/226 104/267/227 103/268/228
s 27
f 98/97/229 104/98/230 111/99/231 112/100/232
s 28
f 103/105/233 97/106/234 109/107/235 110/108/236
f 106/110/237 105/109/238 99/111/239 101/112/240
s 26
f 101/271/241 102/272/242 107/270/243 106/269/244
s 27
f 108/102/245 107/101/246 102/103/247 100/104/248
s 25
f 105/262/249 108/261/250 100/263/251 99/264/252
s 28
f 110/108/236 109/107/235 105/109/238 106/110/237
s 26
f 106/269/244 107/270/243 111/266/226 110/265/225
s 27
f 112/100/232 111/99/231 107/101/246 108/102/245
s 25
f 109/260/220 112/259/219 108/261/250 105/262/249
s 29
f 113/273/253 114/274/254 128/275/255 125/276/256
s off
f 115/157/257 116/158/258 118/159/259 117/160/260
s 30
f 126/281/261 127/282/262 120/283/263 119/284/264
s 31
f 114/113/265 120/114/266 127/115/267 128/116/268
s 32
f 119/121/269 113/122/270 125/123/271 126/124/272
f 122/126/273 121/125/274 115/127/275 117/128/276
s 30
f 117/287/277 118/288/278 123/286/279 122/285/280
s 31
f 124/118/281 123/117/282 118/119/283 116/120/284
s 29
f 121/278/285 124/277/286 116/279/287 115/280/288
s 32
f 126/124/272 125/123/271 121/125/274 122/126/273
s 30
f 122/285/280 123/286/279 127/282/262 126/281/261
s 31
f 128/116/268 127/115/267 123/117/282 124/118/281
s 29
f 125/276/256 128/275/255 124/277/286 121/278/285
