# This file uses centimeters as units for non-parametric coordinates.

mtllib Grass_Plane2.mtl
g default
v -0.180304 -0.201306 -0.027253
v 0.178397 -0.151584 -0.029764
v 0.047499 0.351237 0.043452
v 0.047855 -0.179436 -0.024030
v 0.180304 0.116346 -0.043452
v 0.106308 0.087421 -0.024556
v -0.059297 0.113319 0.020208
vt 0.000000 0.000000
vt 1.000000 0.000000
vt 0.500000 1.000000
vt 0.500000 0.000000
vt 1.000000 0.500000
vt 0.500000 0.500000
vt 0.000000 0.500000
vn 0.106061 -0.084443 0.990768
vn 0.115900 0.013314 0.993172
vn 0.179978 -0.048212 0.982488
vn 0.142938 -0.090860 0.985552
vn 0.103129 -0.111609 0.988387
vn 0.131549 -0.130834 0.982638
vn 0.242274 -0.191192 0.951183
s 1
g Grass_Plane2
usemtl initialShadingGroup
f 4/4/1 2/2/2 5/5/3 6/6/4
f 1/1/5 4/4/1 6/6/4 7/7/6
f 6/6/4 5/5/3 3/3/7
f 7/7/6 6/6/4 3/3/7
