# This file uses centimeters as units for non-parametric coordinates.

mtllib Tree_Mid.mtl
g default
v 0.070254 -0.115314 0.092264
v 0.037118 -0.112376 0.010141
v -0.023060 -0.108765 -0.024152
v -0.088535 -0.105596 -0.000253
v -0.134732 -0.103543 0.072378
v -0.142226 -0.102845 0.167847
v -0.106937 -0.102536 0.245205
v -0.044290 -0.104389 0.275898
v 0.021218 -0.109338 0.253857
v 0.064767 -0.114260 0.185875
v 0.134640 1.109862 0.043365
v 0.080860 1.089929 -0.048170
v -0.025074 1.100425 -0.039367
v -0.119109 1.119224 0.029949
v -0.158515 1.150813 0.118807
v -0.146690 1.167260 0.192640
v -0.102855 1.167584 0.231067
v -0.035168 1.143929 0.240803
v 0.060015 1.123259 0.207490
v 0.127534 1.123376 0.147994
v 0.899263 1.555536 -0.265905
v 0.451092 1.713853 -0.562798
v -0.128793 1.603818 -0.822834
v -0.477020 1.326836 -0.399332
v -0.941117 1.479863 -0.176643
v -0.768365 1.580704 0.459025
v -0.443577 1.428737 0.803850
v 0.105332 1.655962 1.089645
v 0.600924 1.751213 0.951469
v 0.922829 1.598860 0.490201
v 0.726584 1.368854 0.399235
v 0.505450 1.359957 0.739152
v 0.062170 1.308931 0.726788
v -0.397944 1.326906 0.675931
v -0.708945 1.490402 0.440848
v -0.706135 1.286411 -0.024255
v -0.296197 1.220433 -0.342838
v -0.037128 1.410879 -0.731291
v 0.442240 1.402190 -0.581116
v 0.703493 1.349748 -0.197355
v 0.496131 1.211314 0.280659
v 0.379317 1.236568 0.555392
v 0.024810 1.210951 0.525811
v -0.304839 1.259631 0.511998
v -0.629843 1.395220 0.374565
v -0.551419 1.264403 0.078494
v -0.257358 1.279877 -0.216549
v -0.030402 1.252295 -0.590469
v 0.339437 1.262174 -0.438880
v 0.469559 1.311412 -0.057953
v 0.332831 1.161188 0.148710
v 0.190796 1.135659 0.296306
v 0.008415 1.139338 0.376823
v -0.208855 1.142699 0.384467
v -0.403206 1.193589 0.316815
v -0.367610 1.133602 0.109722
v -0.236556 1.158788 -0.104069
v -0.038023 1.119629 -0.229723
v 0.165528 1.209594 -0.132630
v 0.315233 1.266434 0.025484
v 0.078265 0.918845 -0.033438
v 0.080603 0.909720 0.017931
v 0.051882 0.904926 0.067410
v 0.001852 0.903571 0.097150
v -0.050500 0.902569 0.094958
v -0.084851 0.898655 0.059929
v -0.087165 0.895934 0.003876
v -0.057058 0.899478 -0.049448
v -0.006757 0.909333 -0.077026
v 0.044799 0.918455 -0.070002
v 0.083752 0.458890 0.061302
v 0.066722 0.455984 0.131508
v 0.014547 0.454509 0.188594
v -0.054065 0.453716 0.212530
v -0.117158 0.450841 0.192928
v -0.149784 0.446852 0.136731
v -0.135108 0.445182 0.066901
v -0.077475 0.448911 0.009887
v -0.003629 0.456225 -0.014700
v 0.056975 0.460132 0.004187
v 0.688975 2.436335 -0.269791
v 0.411100 2.407701 -0.604515
v -0.120228 2.639438 -0.758652
v -0.800410 2.461708 -0.400365
v -0.901864 2.286026 -0.049711
v -0.802312 2.068431 0.515161
v -0.530786 2.430791 0.972761
v -0.091299 2.335477 1.133214
v 0.357123 2.561432 0.840363
v 0.770725 2.296613 0.463318
v 0.588049 2.910815 -0.277242
v 0.250105 2.949991 -0.490190
v -0.298857 3.237434 -0.649657
v -0.729993 3.348663 -0.413451
v -0.808295 3.028614 0.077139
v -0.731426 3.168623 0.459353
v -0.613540 3.087060 0.808870
v 0.004720 3.180087 0.774544
v 0.480686 3.053616 0.684524
v 0.656559 2.759147 0.475246
v 0.531938 3.490691 -0.366772
v 0.229737 3.404056 -0.562850
v -0.167362 3.458798 -0.642086
v -0.659147 3.605343 -0.449161
v -0.762871 3.635932 -0.102700
v -0.613939 3.636590 0.296596
v -0.467614 3.719833 0.495614
v -0.254701 3.627811 0.578110
v 0.263918 3.495232 0.355197
v 0.578398 3.301445 0.079331
v -0.098679 5.361659 -0.124047
v -0.330721 5.423841 -0.279261
v -0.523629 5.384346 -0.280281
v -0.611723 5.314526 -0.229692
v -0.619533 5.311306 -0.138520
v -0.548653 5.371547 -0.009323
v -0.467406 5.422840 0.065798
v -0.398289 5.481194 0.074917
v -0.290465 5.462021 0.137079
v -0.145528 5.397410 0.071938
v -0.334782 5.729961 -0.171219
v -0.375931 5.714581 -0.217610
v -0.438134 5.691736 -0.238963
v -0.489768 5.671327 -0.224833
v -0.515051 5.660093 -0.180269
v -0.506142 5.666506 -0.122620
v -0.469614 5.693192 -0.072793
v -0.417585 5.719774 -0.052154
v -0.365573 5.735648 -0.072147
v -0.332887 5.738071 -0.117495
v -0.413731 5.765069 -0.138571
v 0.108582 5.109815 -0.158401
v 0.111121 5.085784 0.172407
v -0.075694 5.066097 0.361180
v -0.251122 5.066634 0.342855
v -0.407586 4.964963 0.293381
v -0.556618 4.898922 0.182521
v -0.685844 4.839916 -0.034919
v -0.646719 4.897299 -0.243331
v -0.535219 5.015386 -0.365584
v -0.191711 5.120191 -0.397132
v -0.265944 3.922127 -0.651942
v -0.029924 4.299145 -0.530154
v 0.353256 4.389991 -0.304421
v 0.419539 3.957136 0.013867
v 0.094526 4.018915 0.328520
v -0.295419 3.973843 0.497723
v -0.458216 3.974816 0.340096
v -0.453726 3.989874 0.104093
v -0.627003 3.881867 -0.221346
v -0.575670 3.795155 -0.513595
vt 0.954383 0.726059
vt 0.944522 0.726023
vt 0.945319 0.635862
vt 0.955165 0.635948
vt 0.947331 0.818859
vt 0.937863 0.819488
vt 0.934664 0.725948
vt 0.935474 0.635996
vt 0.964245 0.726205
vt 0.965009 0.636255
vt 0.954296 0.892183
vt 0.939637 0.887943
vt 0.928442 0.820610
vt 0.957089 0.818686
vt 0.924713 0.879426
vt 0.966578 0.891805
vt 0.024749 0.692935
vt 0.015228 0.693122
vt 0.013074 0.605892
vt 0.022638 0.605658
vt 0.031445 0.789191
vt 0.022602 0.787721
vt 0.005677 0.693318
vt 0.003516 0.605910
vt 0.034276 0.692635
vt 0.032185 0.605211
vt 0.031141 0.841788
vt 0.014949 0.847533
vt 0.013595 0.785258
vt 0.040769 0.788381
vt 0.000000 0.844494
vt 0.047901 0.832077
vt 0.061736 0.857537
vt 0.028705 0.878588
vt 0.891673 0.582840
vt 0.925237 0.660127
vt 0.906977 0.663138
vt 0.868670 0.602090
vt 0.929539 0.770977
vt 0.886514 0.751105
vt 0.895142 0.483742
vt 0.906927 0.401902
vt 0.879609 0.564638
vt 0.925170 0.622623
vt 0.048098 0.368073
vt 0.041332 0.283885
vt 0.026588 0.444332
vt 0.069179 0.506985
vt 0.063049 0.902183
vt 0.063494 0.848275
vt 0.080640 0.786409
vt 0.083214 0.975702
vt 0.847044 0.510671
vt 0.819927 0.513901
vt 0.869201 0.510389
vt 0.816427 0.544380
vt 0.837081 0.544992
vt 0.798756 0.520401
vt 0.853504 0.549694
vt 0.804960 0.548000
vt 0.834895 0.595673
vt 0.825214 0.596060
vt 0.844804 0.600391
vt 0.817478 0.599904
vt 0.835153 0.618431
vt 0.636368 0.813810
vt 0.606465 0.814335
vt 0.661154 0.822483
vt 0.611965 0.845025
vt 0.636159 0.840375
vt 0.577946 0.824096
vt 0.658550 0.853849
vt 0.593136 0.861919
vt 0.631411 0.905948
vt 0.622410 0.906883
vt 0.641584 0.907008
vt 0.613781 0.910188
vt 0.623424 0.924639
vt 0.193516 0.162381
vt 0.176096 0.156736
vt 0.173464 0.121500
vt 0.213226 0.142143
vt 0.159124 0.162529
vt 0.137006 0.134930
vt 0.168043 0.060394
vt 0.234668 0.096978
vt 0.151048 0.177678
vt 0.108238 0.171236
vt 0.131950 0.107135
vt 0.167162 0.029940
vt 0.249283 0.070812
vt 0.240088 0.171310
vt 0.264214 0.159810
vt 0.152750 0.192642
vt 0.098016 0.214073
vt 0.072403 0.161853
vt 0.122060 0.084590
vt 0.297980 0.137801
vt 0.243979 0.196840
vt 0.271156 0.216150
vt 0.160270 0.202172
vt 0.131294 0.239143
vt 0.053165 0.227065
vt 0.044956 0.144344
vt 0.093146 0.066689
vt 0.153772 0.000000
vt 0.308788 0.226785
vt 0.205584 0.195806
vt 0.204570 0.177464
vt 0.217507 0.223769
vt 0.246360 0.262914
vt 0.173117 0.207420
vt 0.176778 0.242493
vt 0.109540 0.269483
vt 0.036745 0.246522
vt 0.000000 0.116901
vt 0.333708 0.125698
vt 0.346250 0.236785
vt 0.261742 0.293395
vt 0.192195 0.205370
vt 0.177391 0.275121
vt 0.091671 0.307707
vt 0.285008 0.329509
vt 0.181230 0.315042
vt 0.197686 0.382248
vt 0.093216 0.341030
vt 0.428601 0.319546
vt 0.343265 0.256372
vt 0.371220 0.135478
vt 0.497859 0.377510
vt 0.422210 0.055076
vt 0.598064 0.331703
vt 0.526154 0.011809
vt 0.618892 0.053382
vt 0.686710 0.139468
vt 0.682752 0.253064
vt 0.708609 0.374613
vt 0.750981 0.464224
vt 0.651696 0.370840
vt 0.525712 0.385259
vt 0.770897 0.564371
vt 0.708710 0.623283
vt 0.458854 0.455515
vt 0.620969 0.686320
vt 0.474446 0.559991
vt 0.528179 0.632427
vt 0.216652 0.405479
vt 0.277265 0.337796
vt 0.362024 0.273719
vt 0.185643 0.506488
vt 0.437154 0.349236
vt 0.388523 0.599705
vt 0.263297 0.584934
vt 0.443989 0.615278
vt 0.212334 0.569399
vt 0.276784 0.589709
vt 0.134896 0.505414
vt 0.263293 0.682326
vt 0.054968 0.513126
vt 0.218119 0.757126
vt 0.000000 0.582983
vt 0.149370 0.796016
vt 0.048380 0.781198
vt 0.523068 0.629353
vt 0.563665 0.703863
vt 0.578069 0.795668
vt 0.456275 0.589734
vt 0.520967 0.831779
vt 0.440311 0.885030
vt 0.361167 0.883086
vt 0.832725 0.640275
vt 0.876941 0.700719
vt 0.759645 0.613894
vt 0.884887 0.762538
vt 0.688747 0.639671
vt 0.830185 0.831272
vt 0.647270 0.703808
vt 0.759249 0.860394
vt 0.644497 0.775197
vt 0.694811 0.831411
vt 0.746227 0.040088
vt 0.797834 0.000000
vt 0.868963 0.011038
vt 0.683027 0.082035
vt 0.692481 0.154968
vt 0.717463 0.223718
vt 0.875389 0.221157
vt 0.809220 0.256959
vt 0.456810 0.000000
vt 0.463316 0.007681
vt 0.444843 0.015203
vt 0.466302 0.018136
vt 0.465025 0.026901
vt 0.345493 0.819004
vt 0.320218 0.885231
vt 0.290547 0.787798
vt 0.303773 0.945101
vt 0.251801 0.760181
vt 0.245107 0.957800
vt 0.190269 0.774045
vt 0.169707 0.903901
vt 0.157622 0.815508
vt 0.170268 0.870166
vt 0.889818 0.332931
vt 0.910410 0.398783
vt 0.877134 0.275091
vt 0.854092 0.425065
vt 0.818315 0.456092
vt 0.736203 0.315545
vt 0.801885 0.253922
vt 0.755998 0.444565
vt 0.741073 0.348118
vt 0.725059 0.401316
vt 0.967601 0.337828
vt 0.977905 0.337986
vt 0.973796 0.432047
vt 0.963493 0.431978
vt 0.966082 0.235848
vt 0.976736 0.234282
vt 0.957290 0.337848
vt 0.953185 0.431911
vt 0.967807 0.182294
vt 0.987652 0.187089
vt 0.955893 0.238469
vt 0.949232 0.177116
vt 0.984024 0.525920
vt 0.973750 0.526070
vt 0.969984 0.432069
vt 0.980272 0.432037
vt 0.981984 0.623961
vt 0.971587 0.622984
vt 0.994299 0.526016
vt 0.990568 0.432007
vt 0.981100 0.695592
vt 0.966746 0.699755
vt 0.992333 0.625477
vt 1.000000 0.690950
vt 0.898509 0.307830
vt 0.909594 0.210148
vt 0.940992 0.214560
vt 0.924358 0.293691
vt 0.927604 0.126124
vt 0.956671 0.143441
vt 0.000000 0.093191
vt 0.022636 0.004070
vt 0.653508 0.000000
vt 0.653457 0.070966
vt 0.929713 0.084901
vt 0.965798 0.090904
vt 0.910738 0.085296
vt 0.954136 0.060363
vt 0.928875 0.055927
vt 0.915194 0.056364
vt 0.935510 0.001587
vt 0.947449 0.000000
vt 0.925704 0.001810
vt 0.362196 0.033341
vt 0.340612 0.028127
vt 0.381817 0.033801
vt 0.338478 0.069680
vt 0.350252 0.075644
vt 0.365843 0.072200
vt 0.347333 0.123456
vt 0.337426 0.121500
vt 0.356748 0.126238
vt 0.345159 0.140945
vt 0.686530 0.057170
vt 0.692020 0.000000
vt 0.246953 0.067662
vt 0.213665 0.001210
vt 0.381795 0.073445
vt 0.394004 0.000000
vn 0.679774 -0.066095 -0.730437
vn 0.988969 -0.023298 -0.146282
vn 0.993401 -0.020642 -0.112817
vn 0.734098 -0.028520 -0.678445
vn -0.018411 -0.054625 -0.998337
vn 0.025013 0.008459 -0.999651
vn -0.597773 -0.016989 -0.801486
vn -0.585021 0.018307 -0.810811
vn -0.923974 0.018112 -0.382027
vn -0.918985 -0.000670 -0.394292
vn -0.979681 0.068214 0.188608
vn -0.986795 0.004031 0.161926
vn -0.632627 0.134378 0.762710
vn -0.671691 0.058823 0.738493
vn 0.033619 0.160733 0.986425
vn 0.003742 0.108581 0.994081
vn 0.599175 0.120639 0.791477
vn 0.598963 0.092288 0.795441
vn 0.921113 0.047888 0.386338
vn 0.922141 0.033346 0.385414
vn 0.545160 -0.773573 -0.323088
vn 0.479818 -0.811906 -0.332542
vn 0.331590 -0.931698 -0.148281
vn 0.365615 -0.912849 -0.181749
vn -0.025696 -0.980573 -0.194467
vn -0.076466 -0.954851 -0.287075
vn -0.148351 -0.987950 -0.044124
vn -0.455587 -0.817826 -0.351570
vn -0.007379 -0.991691 0.128433
vn -0.432262 -0.897032 -0.092102
vn -0.036300 -0.996948 0.069113
vn -0.475001 -0.829817 0.292879
vn -0.113717 -0.982788 -0.145591
vn -0.215715 -0.914320 0.342763
vn -0.076816 -0.996473 -0.033779
vn -0.009669 -0.941852 0.335888
vn 0.022962 -0.998190 0.055580
vn 0.142567 -0.967253 0.209992
vn 0.263589 -0.953659 -0.145103
vn 0.300690 -0.944385 -0.133123
vn 0.503263 0.001582 -0.864132
vn 0.949660 -0.003423 -0.313264
vn 0.640796 -0.719573 -0.267574
vn 0.461054 -0.453672 -0.762634
vn -0.275367 -0.081894 -0.957845
vn 0.082490 -0.483100 -0.871670
vn -0.609786 -0.262261 -0.747917
vn -0.296317 -0.864264 -0.406502
vn -0.925495 -0.185068 -0.330468
vn -0.515143 -0.856961 0.015680
vn -0.893473 -0.173875 0.414094
vn -0.664022 -0.683653 0.302810
vn -0.503791 -0.346399 0.791329
vn -0.259702 -0.808205 0.528544
vn 0.007144 -0.207915 0.978121
vn 0.045583 -0.760422 0.647828
vn 0.607717 0.003515 0.794146
vn 0.384642 -0.682550 0.621431
vn 0.974122 0.011355 0.225737
vn 0.648614 -0.732794 0.205702
vn 0.241771 -0.905673 0.348287
vn 0.371326 -0.927938 0.032363
vn -0.014995 -0.900629 0.434329
vn -0.292564 -0.865400 0.406804
vn -0.509639 -0.818391 0.265527
vn -0.397233 -0.913256 0.090386
vn -0.326807 -0.917072 -0.228424
vn 0.078736 -0.889536 -0.450029
vn 0.293579 -0.904293 -0.309945
vn 0.353080 -0.928184 -0.117511
vn 0.967185 -0.218042 -0.130426
vn 0.807919 -0.408622 0.424612
vn 0.942460 -0.096903 0.319966
vn 0.953487 -0.088708 -0.288086
vn 0.444604 -0.487050 0.751738
vn 0.632589 -0.099115 0.768119
vn 0.009758 -0.510018 0.860108
vn 0.149531 -0.080787 0.985451
vn -0.407669 -0.492101 0.769183
vn -0.494910 -0.057521 0.867039
vn -0.759136 -0.424200 0.493727
vn -0.956458 -0.041871 0.288851
vn -0.966446 -0.256763 -0.007382
vn -0.934144 -0.037126 -0.354961
vn -0.821571 -0.015613 -0.569892
vn -0.623431 -0.035675 -0.781064
vn -0.363305 0.146478 -0.920083
vn -0.154169 -0.032758 -0.987501
vn 0.518097 0.044838 -0.854146
vn 0.498502 -0.044944 -0.865723
vn 0.490290 0.105816 -0.865112
vn 0.915433 0.204432 -0.346684
vn -0.168884 0.059147 -0.983860
vn -0.730626 -0.001223 -0.682777
vn -0.990137 0.023560 -0.138104
vn -0.921518 -0.036288 0.386636
vn -0.564706 0.062886 0.822893
vn -0.026253 0.091310 0.995477
vn 0.521462 0.221104 0.824130
vn 0.946725 0.238012 0.216940
vn 0.467387 0.143845 -0.872272
vn 0.918509 0.147971 -0.366669
vn -0.248364 0.057346 -0.966968
vn -0.778928 0.076089 -0.622480
vn -0.991363 0.114845 0.063326
vn -0.936633 0.158606 0.312350
vn -0.580102 0.263395 0.770782
vn 0.170743 0.436819 0.883196
vn 0.602645 0.413161 0.682727
vn 0.937800 0.228604 0.261288
vn 0.848675 0.144356 -0.508834
vn 0.404482 0.035103 -0.913872
vn 0.056654 0.000563 -0.998394
vn -0.754683 0.106868 -0.647327
vn -0.955362 0.287369 0.068577
vn -0.890751 0.345271 0.295550
vn -0.551430 0.428774 0.715596
vn 0.156508 0.416294 0.895659
vn 0.613007 0.425495 0.665715
vn 0.957271 0.241638 0.158886
vn 0.284762 0.208078 -0.935743
vn 0.841159 0.279136 -0.463179
vn -0.147859 0.098304 -0.984111
vn -0.709075 0.043513 -0.703789
vn -0.990384 0.105913 0.089001
vn -0.898627 0.062103 0.434295
vn -0.785704 0.149819 0.600187
vn 0.026905 0.157564 0.987142
vn 0.546409 0.140235 0.825694
vn 0.907337 0.215468 0.360988
vn 0.731824 0.589411 -0.342094
vn 0.258834 0.351443 -0.899718
vn 0.420176 0.287392 -0.860731
vn 0.785004 0.457932 -0.417213
vn -0.281812 0.231525 -0.931117
vn -0.099440 0.240926 -0.965436
vn -0.883274 0.154808 -0.442563
vn -0.727887 0.323074 -0.604817
vn -0.961643 0.196095 0.191805
vn -0.942344 0.330906 0.049889
vn -0.817108 0.251586 0.518689
vn -0.862516 0.327486 0.385770
vn -0.598599 0.320348 0.734205
vn -0.666391 0.393540 0.633285
vn -0.357443 0.414794 0.836768
vn -0.320474 0.507090 0.800098
vn 0.179344 0.581291 0.793686
vn 0.352293 0.645246 0.677900
vn 0.685901 0.637537 0.350837
vn 0.765035 0.595666 0.244752
vn -0.292602 0.953000 -0.078579
vn 0.849991 0.268298 0.453356
vn 0.837409 0.384790 -0.388178
vn 0.482784 0.164989 0.860057
vn -0.079768 0.172838 0.981715
vn -0.685699 0.125137 0.717048
vn -0.872353 -0.003466 0.488864
vn -0.969964 -0.047101 0.238643
vn -0.821976 0.073902 -0.564708
vn -0.299244 0.185163 -0.936038
vn 0.262691 0.301226 -0.916655
s 1
g Tree_Mid
usemtl initialShadingGroup
f 80/25/1 71/17/2 1/20/3 2/26/4
f 79/214/5 80/215/1 2/216/4 3/217/6
f 78/220/7 79/214/5 3/217/6 4/221/8
f 77/2/9 78/7/7 4/8/8 5/3/10
f 76/1/11 77/2/9 5/3/10 6/4/12
f 75/9/13 76/1/11 6/4/12 7/10/14
f 74/226/15 75/227/13 7/228/14 8/229/16
f 73/232/17 74/226/15 8/229/16 9/233/18
f 72/18/19 73/23/17 9/24/18 10/19/20
f 71/17/2 72/18/19 10/19/20 1/20/3
s 2
f 11/27/21 12/32/22 59/33/23 60/34/24
f 12/79/22 13/80/25 58/81/26 59/82/23
f 13/80/25 14/83/27 57/84/28 58/81/26
f 14/83/27 15/87/29 56/88/30 57/84/28
f 15/87/29 16/94/31 55/95/32 56/88/30
f 16/94/31 17/101/33 54/102/34 55/95/32
f 17/101/33 18/112/35 53/113/36 54/102/34
f 18/112/35 19/120/37 52/110/38 53/113/36
f 19/120/37 20/108/39 51/99/40 52/110/38
f 20/108/39 11/109/21 60/92/24 51/99/40
f 22/239/41 21/242/42 40/243/43 39/240/44
f 23/238/45 22/239/41 39/240/44 38/241/46
f 24/105/47 23/106/45 38/90/46 37/97/48
f 25/116/49 24/105/47 37/97/48 36/104/50
f 26/36/51 25/39/49 36/40/50 35/37/52
f 27/35/53 26/36/51 35/37/52 34/38/54
f 28/125/55 27/126/53 34/122/54 33/124/56
f 29/123/57 28/125/55 33/124/56 32/119/58
f 30/118/59 29/123/57 32/119/58 31/107/60
f 21/117/42 30/118/59 31/107/60 40/98/43
f 42/111/61 41/100/62 31/107/60 32/119/58
f 43/121/63 42/111/61 32/119/58 33/124/56
f 44/114/64 43/121/63 33/124/56 34/122/54
f 45/103/65 44/114/64 34/122/54 35/115/52
f 46/96/66 45/103/65 35/115/52 36/104/50
f 47/89/67 46/96/66 36/104/50 37/97/48
f 48/85/68 47/89/67 37/97/48 38/90/46
f 49/86/69 48/85/68 38/90/46 39/91/44
f 50/93/70 49/86/69 39/91/44 40/98/43
f 41/100/62 50/93/70 40/98/43 31/107/60
f 52/110/38 51/99/40 41/100/62 42/111/61
f 53/113/36 52/110/38 42/111/61 43/121/63
f 54/102/34 53/113/36 43/121/63 44/114/64
f 55/95/32 54/102/34 44/114/64 45/103/65
f 56/88/30 55/95/32 45/103/65 46/96/66
f 57/84/28 56/88/30 46/96/66 47/89/67
f 58/81/26 57/84/28 47/89/67 48/85/68
f 59/82/23 58/81/26 48/85/68 49/86/69
f 60/92/24 59/82/23 49/86/69 50/93/70
f 51/99/40 60/92/24 50/93/70 41/100/62
s 1
f 11/27/71 20/28/72 62/22/73 61/21/74
f 20/28/72 19/31/75 63/29/76 62/22/73
f 19/237/75 18/234/77 64/230/78 63/236/76
f 18/234/77 17/235/79 65/231/80 64/230/78
f 17/16/79 16/11/81 66/5/82 65/14/80
f 16/11/81 15/12/83 67/6/84 66/5/82
f 15/12/83 14/15/85 68/13/86 67/6/84
f 14/225/85 13/222/87 69/218/88 68/224/86
f 13/222/87 12/223/89 70/219/90 69/218/88
f 12/32/89 11/27/71 61/21/74 70/30/90
f 61/21/74 62/22/73 72/18/19 71/17/2
f 62/22/73 63/29/76 73/23/17 72/18/19
f 63/236/76 64/230/78 74/226/15 73/232/17
f 64/230/78 65/231/80 75/227/13 74/226/15
f 65/14/80 66/5/82 76/1/11 75/9/13
f 66/5/82 67/6/84 77/2/9 76/1/11
f 67/6/84 68/13/86 78/7/7 77/2/9
f 68/224/86 69/218/88 79/214/5 78/220/7
f 69/218/88 70/219/90 80/215/1 79/214/5
f 70/30/90 61/21/74 71/17/2 80/25/1
s 2
f 82/137/91 81/138/92 21/242/42 22/239/41
f 83/139/93 82/137/91 22/132/41 23/130/45
f 84/140/94 83/139/93 23/130/45 24/127/47
f 85/143/95 84/140/94 24/127/47 25/128/49
f 86/145/96 85/143/95 25/128/49 26/129/51
f 87/146/97 86/145/96 26/129/51 27/131/53
f 88/144/98 87/146/97 27/131/53 28/133/55
f 89/142/99 88/144/98 28/133/55 29/134/57
f 90/141/100 89/142/99 29/134/57 30/135/59
f 81/41/92 90/43/100 30/135/59 21/136/42
f 81/41/92 82/42/91 92/155/101 91/156/102
f 82/154/91 83/152/93 93/157/103 92/155/101
f 83/152/93 84/153/94 94/159/104 93/157/103
f 94/159/104 84/269/94 85/270/95 95/161/105
f 85/150/95 86/147/96 96/45/106 95/47/105
f 86/147/96 87/148/97 97/46/107 96/45/106
f 87/148/97 88/149/98 98/162/108 97/163/107
f 88/149/98 89/151/99 99/160/109 98/162/108
f 89/44/99 90/43/100 100/158/110 99/160/109
f 90/43/100 81/41/92 91/156/102 100/158/110
f 101/172/111 91/166/102 92/168/101 102/171/112
f 92/271/101 93/272/103 103/173/113 102/171/112
f 93/169/103 94/170/104 104/175/114 103/173/113
f 94/48/104 95/47/105 105/177/115 104/175/114
f 95/47/105 96/45/106 106/179/116 105/177/115
f 96/45/106 97/46/107 107/180/117 106/179/116
f 97/244/107 98/245/108 108/178/118 107/180/117
f 98/167/108 99/164/109 109/176/119 108/178/118
f 99/164/109 100/165/110 110/174/120 109/176/119
f 100/165/110 91/166/102 101/172/111 110/174/120
f 101/50/111 102/51/112 143/196/121 144/194/122
f 143/196/121 102/187/112 103/188/113 142/198/123
f 103/246/113 104/247/114 151/200/124 142/198/123
f 104/186/114 105/185/115 150/202/125 151/200/124
f 105/185/115 106/184/116 149/203/126 150/202/125
f 106/184/116 107/181/117 148/201/127 149/203/126
f 107/181/117 108/182/118 147/199/128 148/201/127
f 108/182/118 109/183/119 146/197/129 147/199/128
f 109/52/119 110/49/120 145/195/130 146/197/129
f 110/49/120 101/50/111 144/194/122 145/195/130
f 111/70/131 112/72/132 122/76/133 121/74/134
f 112/251/132 113/252/135 123/254/136 122/255/133
f 113/252/135 114/253/137 124/256/138 123/254/136
f 114/60/137 115/56/139 125/62/140 124/64/138
f 115/56/139 116/57/141 126/61/142 125/62/140
f 116/57/141 117/59/143 127/63/144 126/61/142
f 117/260/143 118/261/145 128/263/146 127/264/144
f 118/261/145 119/262/147 129/265/148 128/263/146
f 119/73/147 120/69/149 130/75/150 129/77/148
f 120/69/149 111/70/131 121/74/134 130/75/150
f 121/189/134 122/190/133 131/191/151
f 122/190/133 123/192/136 131/191/151
f 123/192/136 124/193/138 131/191/151
f 124/64/138 125/62/140 131/65/151
f 125/62/140 126/61/142 131/65/151
f 126/61/142 127/63/144 131/65/151
f 127/264/144 128/263/146 131/266/151
f 128/263/146 129/265/148 131/266/151
f 129/77/148 130/75/150 131/78/151
f 130/75/150 121/74/134 131/78/151
f 120/69/149 133/67/152 132/66/153 111/70/131
f 119/73/147 134/71/154 133/67/152 120/69/149
f 118/261/145 135/257/155 134/259/154 119/262/147
f 117/260/143 136/258/156 135/257/155 118/261/145
f 116/57/141 137/53/157 136/55/156 117/59/143
f 115/56/139 138/54/158 137/53/157 116/57/141
f 114/60/137 139/58/159 138/54/158 115/56/139
f 113/252/135 140/248/160 139/250/159 114/253/137
f 112/251/132 141/249/161 140/248/160 113/252/135
f 111/70/131 132/66/153 141/68/161 112/72/132
f 132/66/153 133/67/152 145/204/130 144/205/122
f 133/67/152 134/71/154 146/206/129 145/204/130
f 134/259/154 135/257/155 147/267/128 146/268/129
f 135/257/155 136/258/156 148/209/127 147/210/128
f 136/55/156 137/53/157 149/212/126 148/209/127
f 137/53/157 138/54/158 150/213/125 149/212/126
f 138/54/158 139/58/159 151/211/124 150/213/125
f 139/250/159 140/248/160 142/208/123 151/211/124
f 140/248/160 141/249/161 143/207/121 142/208/123
f 143/207/121 141/68/161 132/66/153 144/205/122
