# This file uses centimeters as units for non-parametric coordinates.

mtllib Tree.mtl
g default
v 0.401267 1.371644 -1.389883
v 1.003044 1.371644 -1.042447
v 0.000000 5.593230 0.000000
v -1.003044 1.371644 -1.042448
v -0.401267 1.371644 -1.389883
v -1.404310 1.371644 0.347436
v -1.404310 1.371644 -0.347436
v -0.401267 1.371644 1.389884
v -1.003044 1.371644 1.042448
v 1.003044 1.371644 1.042449
v 0.401267 1.371644 1.389885
v 1.404310 1.371644 -0.347436
v 1.404310 1.371644 0.347436
v 0.091652 1.371644 -0.317459
v -0.091652 1.371644 -0.317459
v -0.229102 1.371644 -0.238102
v -0.320755 1.371644 -0.079356
v -0.320755 1.371644 0.079357
v -0.229103 1.371644 0.238103
v -0.091652 1.371644 0.317460
v 0.091652 1.371644 0.317460
v 0.229103 1.371644 0.238104
v 0.320755 1.371644 0.079357
v 0.320755 1.371644 -0.079356
v 0.229103 1.371644 -0.238102
v 0.091652 0.000000 -0.317459
v -0.091652 0.000000 -0.317459
v -0.229102 0.000000 -0.238102
v -0.320755 0.000000 -0.079356
v -0.320755 0.000000 0.079357
v -0.229103 0.000000 0.238103
v -0.091652 0.000000 0.317460
v 0.091652 0.000000 0.317460
v 0.229103 0.000000 0.238104
v 0.320755 0.000000 0.079357
v 0.320755 0.000000 -0.079356
v 0.229103 0.000000 -0.238102
vt 0.713762 0.278630
vt 0.366658 0.987453
vt 0.209135 0.987453
vt 0.269907 0.776955
vt 0.305886 0.776955
vt 0.563537 0.782840
vt 0.484776 0.919257
vt 0.332865 0.761379
vt 0.350855 0.730220
vt 0.484776 0.510031
vt 0.563537 0.646449
vt 0.350855 0.699068
vt 0.007325 0.295828
vt 0.007325 0.005994
vt 0.075671 0.295828
vt 0.038984 0.295828
vt 0.038984 0.005994
vt 0.075671 0.005994
vt 0.144018 0.295828
vt 0.107330 0.295828
vt 0.107330 0.005994
vt 0.144018 0.005994
vt 0.212365 0.295828
vt 0.175677 0.295828
vt 0.175677 0.005994
vt 0.212365 0.005994
vt 0.280712 0.295828
vt 0.244024 0.295828
vt 0.244024 0.005994
vt 0.280712 0.005994
vt 0.349058 0.295828
vt 0.312371 0.295828
vt 0.332865 0.667909
vt 0.792894 0.552940
vt 0.634630 0.552940
vt 0.209135 0.441835
vt 0.312371 0.005994
vt 0.349058 0.005994
vt 0.242928 0.761379
vt 0.224938 0.730220
vt 0.515768 0.484315
vt 0.436636 0.347255
vt 0.436636 0.210005
vt 0.515768 0.072945
vt 0.634630 0.004320
vt 0.792893 0.004320
vt 0.911756 0.072945
vt 0.990887 0.210005
vt 0.990887 0.347255
vt 0.911756 0.484315
vt 0.366658 0.441835
vt 0.305886 0.652332
vt 0.269907 0.652332
vt 0.012256 0.646449
vt 0.091017 0.510030
vt 0.242928 0.667909
vt 0.224938 0.699068
vt 0.091017 0.919257
vt 0.012256 0.782840
vt 0.417405 0.295828
vt 0.380718 0.295828
vt 0.380718 0.005994
vt 0.417405 0.005994
vn 0.000000 0.312720 -0.949845
vn 0.000000 0.312720 -0.949845
vn 0.000000 0.312720 -0.949845
vn -0.822590 0.312721 -0.474923
vn -0.822590 0.312721 -0.474923
vn -0.822590 0.312721 -0.474923
vn -0.822590 0.312720 0.474923
vn -0.822590 0.312720 0.474923
vn -0.822590 0.312720 0.474923
vn -0.000001 0.312720 0.949845
vn -0.000001 0.312720 0.949845
vn -0.000001 0.312720 0.949845
vn 0.822590 0.312721 0.474923
vn 0.822590 0.312721 0.474923
vn 0.822590 0.312721 0.474923
vn 0.822590 0.312720 -0.474923
vn 0.822590 0.312720 -0.474923
vn 0.822590 0.312720 -0.474923
vn 0.474439 0.315644 -0.821752
vn 0.474439 0.315644 -0.821752
vn 0.474439 0.315644 -0.821752
vn -0.474439 0.315644 -0.821752
vn -0.474439 0.315644 -0.821752
vn -0.474439 0.315644 -0.821752
vn -0.948878 0.315644 -0.000000
vn -0.948878 0.315644 -0.000000
vn -0.948878 0.315644 -0.000000
vn -0.474439 0.315644 0.821752
vn -0.474439 0.315644 0.821752
vn -0.474439 0.315644 0.821752
vn 0.474438 0.315644 0.821753
vn 0.474438 0.315644 0.821753
vn 0.474438 0.315644 0.821753
vn 0.948878 0.315644 -0.000000
vn 0.948878 0.315644 -0.000000
vn 0.948878 0.315644 -0.000000
vn 0.000000 -1.000000 0.000000
vn 0.000000 -1.000000 0.000000
vn 0.000000 -1.000000 0.000000
vn 0.000000 -1.000000 0.000000
vn 0.000000 -1.000000 0.000000
vn 0.000000 -1.000000 0.000000
vn 0.000000 -1.000000 0.000000
vn 0.000000 -1.000000 0.000000
vn 0.000000 -1.000000 0.000000
vn 0.000000 -1.000000 0.000000
vn 0.000000 -1.000000 0.000000
vn 0.000000 -1.000000 0.000000
vn 0.000000 -1.000000 -0.000000
vn 0.000000 -1.000000 -0.000000
vn 0.000000 -1.000000 -0.000000
vn 0.000000 -1.000000 -0.000000
vn 0.000000 -1.000000 0.000000
vn 0.000000 -1.000000 0.000000
vn 0.000000 -1.000000 0.000000
vn 0.000000 -1.000000 0.000000
vn 0.000000 -1.000000 0.000000
vn 0.000000 -1.000000 0.000000
vn 0.000000 -1.000000 0.000000
vn 0.000000 -1.000000 0.000000
vn 0.000000 -1.000000 -0.000000
vn 0.000000 -1.000000 -0.000000
vn 0.000000 -1.000000 -0.000000
vn 0.000000 -1.000000 -0.000000
vn 0.000000 -1.000000 0.000000
vn 0.000000 -1.000000 0.000000
vn 0.000000 -1.000000 0.000000
vn 0.000000 -1.000000 0.000000
vn 0.000000 -1.000000 0.000000
vn 0.000000 -1.000000 0.000000
vn 0.000000 -1.000000 0.000000
vn 0.000000 -1.000000 0.000000
vn 0.000000 -1.000000 0.000000
vn 0.000000 -1.000000 0.000000
vn 0.000000 -1.000000 0.000000
vn 0.000000 -1.000000 0.000000
vn 0.000000 -1.000000 0.000000
vn 0.000000 -1.000000 0.000000
vn 0.000000 -1.000000 0.000000
vn 0.000000 -1.000000 0.000000
vn 0.000000 -1.000000 0.000000
vn 0.000000 -1.000000 0.000000
vn 0.000000 -1.000000 0.000000
vn 0.000000 -1.000000 0.000000
vn 0.000000 0.000000 -1.000000
vn 0.000000 0.000000 -1.000000
vn 0.000000 0.000000 -1.000000
vn 0.000000 0.000000 -1.000000
vn -0.866024 0.000000 -0.500002
vn -0.866024 0.000000 -0.500002
vn -0.866024 0.000000 -0.500002
vn -0.866024 0.000000 -0.500002
vn -0.866025 0.000000 0.500001
vn -0.866025 0.000000 0.500001
vn -0.866025 0.000000 0.500001
vn -0.866025 0.000000 0.500001
vn 0.000000 0.000000 1.000000
vn 0.000000 0.000000 1.000000
vn 0.000000 0.000000 1.000000
vn 0.000000 0.000000 1.000000
vn 0.866025 0.000000 0.500001
vn 0.866025 0.000000 0.500001
vn 0.866025 0.000000 0.500001
vn 0.866025 0.000000 0.500001
vn 0.866024 0.000000 -0.500002
vn 0.866024 0.000000 -0.500002
vn 0.866024 0.000000 -0.500002
vn 0.866024 0.000000 -0.500002
vn 0.499998 0.000000 -0.866027
vn 0.499998 0.000000 -0.866027
vn 0.499998 0.000000 -0.866027
vn 0.499998 0.000000 -0.866027
vn -0.499998 0.000000 -0.866027
vn -0.499998 0.000000 -0.866027
vn -0.499998 0.000000 -0.866027
vn -0.499998 0.000000 -0.866027
vn -1.000000 0.000000 0.000000
vn -1.000000 0.000000 0.000000
vn -1.000000 0.000000 0.000000
vn -1.000000 0.000000 0.000000
vn -0.499998 0.000000 0.866027
vn -0.499998 0.000000 0.866027
vn -0.499998 0.000000 0.866027
vn -0.499998 0.000000 0.866027
vn 0.499998 0.000000 0.866027
vn 0.499998 0.000000 0.866027
vn 0.499998 0.000000 0.866027
vn 0.499998 0.000000 0.866027
vn 1.000000 0.000000 0.000000
vn 1.000000 0.000000 0.000000
vn 1.000000 0.000000 0.000000
vn 1.000000 0.000000 0.000000
s off
g Tree
usemtl initialShadingGroup
f 3/1/1 1/34/2 5/35/3
f 3/1/4 4/41/5 7/42/6
f 3/1/7 6/43/8 9/44/9
f 3/1/10 8/45/11 11/46/12
f 3/1/13 10/47/14 13/48/15
f 3/1/16 12/49/17 2/50/18
f 2/50/19 1/34/20 3/1/21
f 5/35/22 4/41/23 3/1/24
f 7/42/25 6/43/26 3/1/27
f 9/44/28 8/45/29 3/1/30
f 11/46/31 10/47/32 3/1/33
f 13/48/34 12/49/35 3/1/36
f 5/2/37 1/3/38 14/4/39 15/5/40
f 7/6/41 4/7/42 16/8/43 17/9/44
f 9/10/45 6/11/46 18/12/47 19/33/48
f 11/36/49 8/51/50 20/52/51 21/53/52
f 13/54/53 10/55/54 22/56/55 23/57/56
f 2/58/57 12/59/58 24/40/59 25/39/60
f 1/3/61 2/58/62 25/39/63 14/4/64
f 4/7/65 5/2/66 15/5/67 16/8/68
f 6/11/69 7/6/70 17/9/71 18/12/72
f 8/51/73 9/10/74 19/33/75 20/52/76
f 10/55/77 11/36/78 21/53/79 22/56/80
f 12/59/81 13/54/82 23/57/83 24/40/84
f 15/60/85 14/61/86 26/62/87 27/63/88
f 17/15/89 16/16/90 28/17/91 29/18/92
f 19/19/93 18/20/94 30/21/95 31/22/96
f 21/23/97 20/24/98 32/25/99 33/26/100
f 23/27/101 22/28/102 34/29/103 35/30/104
f 25/31/105 24/32/106 36/37/107 37/38/108
f 14/61/109 25/31/110 37/38/111 26/62/112
f 16/16/113 15/13/114 27/14/115 28/17/116
f 18/20/117 17/15/118 29/18/119 30/21/120
f 20/24/121 19/19/122 31/22/123 32/25/124
f 22/28/125 21/23/126 33/26/127 34/29/128
f 24/32/129 23/27/130 35/30/131 36/37/132
