# This file uses centimeters as units for non-parametric coordinates.

mtllib Tree_Mini.mtl
g default
v -0.004133 -0.074751 0.009747
v 0.012991 -0.068570 0.008967
v -0.000337 0.159352 0.013853
v 0.023458 0.150214 0.016181
v -0.002662 0.153907 -0.017467
v 0.018029 0.146553 -0.020300
v -0.006782 -0.080482 -0.011478
v 0.013369 -0.076539 -0.011511
v 0.010757 0.048724 -0.011333
v -0.005942 0.049147 -0.011706
v -0.006179 0.049133 0.006674
v 0.010652 0.048693 0.007113
v -0.029936 0.200379 0.064421
v 0.058208 0.183012 0.068273
v 0.069931 0.153392 -0.071928
v -0.035740 0.188454 -0.072009
v 0.099699 0.138874 0.013009
v -0.068373 0.181766 -0.002666
v -0.006268 0.158571 -0.001518
v -0.009285 0.049160 -0.002423
v -0.008537 -0.068129 -0.000742
v 0.017925 -0.069170 -0.001204
v 0.014309 0.048531 -0.002011
v 0.026065 0.144114 -0.001122
v -0.020923 0.319090 0.049530
v 0.034398 0.324476 0.048688
v 0.062354 0.298433 0.001688
v -0.047246 0.301538 -0.001584
v 0.049292 0.298443 -0.056112
v -0.027617 0.306396 -0.063100
v 0.011432 0.424814 0.011386
v 0.024858 0.427328 0.012381
v 0.031563 0.425655 0.005532
v 0.004893 0.419618 0.002508
v 0.029060 0.425213 -0.003102
v 0.010827 0.421606 -0.006538
vt 0.375000 0.000000
vt 0.625000 0.000000
vt 0.375000 0.250000
vt 0.625000 0.250000
vt 0.375000 0.500000
vt 0.625000 0.500000
vt 0.375000 0.750000
vt 0.625000 0.750000
vt 0.875000 0.000000
vt 0.875000 0.250000
vt 0.125000 0.000000
vt 0.125000 0.250000
vt 0.625000 0.625000
vt 0.875000 0.125000
vt 0.125000 0.125000
vt 0.375000 0.625000
vt 0.375000 0.125000
vt 0.625000 0.125000
vt 0.365020 0.232126
vt 0.625000 0.250000
vt 0.625000 0.500000
vt 0.375000 0.500000
vt 0.625000 0.375000
vt 0.374089 0.382880
vt 0.250000 0.250000
vt 0.375000 0.375000
vt 0.250000 0.125000
vt 0.250000 0.000000
vt 0.750000 0.000000
vt 0.750000 0.125000
vt 0.625000 0.375000
vt 0.750000 0.250000
vt 0.375000 0.250000
vt 0.625000 0.250000
vt 0.625000 0.375000
vt 0.375000 0.375000
vt 0.625000 0.500000
vt 0.375000 0.500000
vt 0.375000 0.250000
vt 0.625000 0.250000
vt 0.625000 0.375000
vt 0.375000 0.375000
vt 0.625000 0.500000
vt 0.375000 0.500000
vn -0.040628 -0.026054 0.998835
vn -0.041165 -0.026585 0.998799
vn -0.083955 -0.068884 0.994086
vn -0.083955 -0.068884 0.994086
vn -0.153231 0.905002 -0.396853
vn -0.153231 0.905002 -0.396853
vn -0.194886 0.970607 -0.141216
vn -0.196572 0.972043 -0.128419
vn -0.079608 -0.068156 -0.994493
vn -0.079608 -0.068156 -0.994494
vn -0.030831 -0.030813 -0.999050
vn -0.031024 -0.030961 -0.999039
vn 0.942376 -0.057358 0.329603
vn 0.997413 -0.054549 -0.046807
vn 0.990265 -0.126261 -0.058594
vn 0.956992 -0.132294 0.258196
vn -0.998854 0.011803 0.046381
vn -0.936352 0.011802 0.350864
vn -0.938027 0.025115 0.345651
vn -0.996437 0.025037 0.080538
vn 0.009222 -0.000129 -0.999958
vn 0.009222 -0.000129 -0.999958
vn -0.999398 -0.002705 0.034584
vn -0.934145 -0.003786 0.356875
vn 0.006577 0.020550 0.999767
vn 0.006577 0.020550 0.999767
vn 0.913596 0.027749 0.405676
vn 0.996953 0.026809 -0.073254
vn -0.218218 -0.787089 0.576950
vn -0.218218 -0.787089 0.576950
vn -0.218218 -0.787089 0.576950
vn -0.218218 -0.787089 0.576950
vn -0.104130 -0.846224 0.522553
vn -0.063471 -0.991205 0.116118
vn -0.071809 -0.978742 0.192113
vn -0.104130 -0.846224 0.522553
vn -0.300396 -0.869458 -0.392181
vn -0.300396 -0.869458 -0.392181
vn -0.300396 -0.869458 -0.392181
vn -0.300396 -0.869458 -0.392181
vn -0.885795 0.137613 0.443205
vn -0.885795 0.137613 0.443205
vn -0.885795 0.137613 0.443205
vn -0.885795 0.137613 0.443205
vn -0.215776 0.975476 0.043455
vn -0.215776 0.975476 0.043455
vn -0.420238 -0.885199 -0.199555
vn -0.420238 -0.885199 -0.199555
vn -0.420238 -0.885199 -0.199555
vn -0.420238 -0.885199 -0.199555
vn -0.965969 0.011132 -0.258417
vn -0.962803 0.022202 -0.269290
vn -0.969296 -0.001540 -0.245894
vn 0.921074 0.022609 -0.388731
vn 0.921078 -0.048629 -0.386329
vn 0.917641 -0.106274 -0.382936
vn -0.032015 -0.988270 -0.149321
vn -0.032015 -0.988270 -0.149321
vn -0.009874 0.130808 0.991359
vn -0.009874 0.130808 0.991359
vn -0.009874 0.130808 0.991359
vn -0.009874 0.130808 0.991359
vn 0.870664 0.221953 0.438954
vn 0.870664 0.221953 0.438954
vn 0.870664 0.221953 0.438954
vn 0.870664 0.221953 0.438954
vn -0.372766 -0.838359 0.397743
vn -0.372766 -0.838359 0.397743
vn -0.372766 -0.838359 0.397743
vn -0.372766 -0.838359 0.397743
vn 0.946443 0.184073 -0.265258
vn 0.946443 0.184073 -0.265258
vn 0.946443 0.184073 -0.265258
vn 0.946443 0.184073 -0.265258
vn 0.061151 0.096309 -0.993471
vn 0.061151 0.096309 -0.993471
vn 0.061151 0.096309 -0.993471
vn 0.061151 0.096309 -0.993471
vn -0.924798 0.128842 -0.357977
vn -0.924798 0.128842 -0.357977
vn -0.924798 0.128842 -0.357977
vn -0.924798 0.128842 -0.357977
vn -0.041147 0.339875 0.939570
vn -0.041147 0.339875 0.939570
vn -0.041147 0.339875 0.939570
vn -0.041147 0.339875 0.939570
vn 0.867831 0.215307 0.447787
vn 0.867831 0.215307 0.447786
vn 0.867831 0.215307 0.447787
vn 0.867831 0.215307 0.447786
vn -0.865093 0.376957 0.330935
vn -0.865093 0.376957 0.330935
vn -0.865093 0.376957 0.330935
vn -0.865093 0.376957 0.330935
vn 0.944900 0.239719 -0.222934
vn 0.944899 0.239719 -0.222934
vn 0.944899 0.239719 -0.222934
vn 0.944899 0.239719 -0.222934
vn 0.117844 0.402246 -0.907916
vn 0.117844 0.402246 -0.907916
vn 0.117844 0.402246 -0.907916
vn 0.117844 0.402246 -0.907916
vn -0.869828 0.409340 -0.275390
vn -0.869828 0.409340 -0.275390
vn -0.869828 0.409340 -0.275390
vn -0.869828 0.409340 -0.275390
s 1
g Tree_Mini
usemtl initialShadingGroup
f 11/17/1 12/18/2 4/4/3 3/3/4
s 2
f 31/39/5 32/40/6 33/41/7 34/42/8
s 3
f 5/5/9 6/6/10 9/13/11 10/16/12
s 4
f 12/18/13 23/30/14 24/32/15 4/4/16
s 5
f 20/27/17 11/17/18 3/3/19 19/25/20
s 3
f 10/16/12 9/13/11 8/8/21 7/7/22
s 5
f 21/28/23 1/1/24 11/17/18 20/27/17
s 1
f 1/1/25 2/2/26 12/18/2 11/17/1
s 4
f 2/2/27 22/29/28 23/30/14 12/18/13
s off
f 3/3/29 4/4/30 14/20/31 13/19/32
s 6
f 4/4/33 24/31/34 17/23/35 14/20/36
s off
f 6/6/37 5/5/38 16/22/39 15/21/40
f 18/24/41 13/19/42 25/33/43 28/36/44
s 2
f 34/42/8 33/41/7 35/43/45 36/44/46
s off
f 5/5/47 19/26/48 18/24/49 16/22/50
s 5
f 10/15/51 20/27/17 19/25/20 5/12/52
f 7/11/53 21/28/23 20/27/17 10/15/51
s 4
f 23/30/14 22/29/28 8/9/54 9/14/55
f 24/32/15 23/30/14 9/14/55 6/10/56
s 6
f 17/23/35 24/31/34 6/6/57 15/21/58
s off
f 13/19/59 14/20/60 26/34/61 25/33/62
f 14/20/63 17/23/64 27/35/65 26/34/66
f 19/26/67 3/3/68 13/19/69 18/24/70
f 17/23/71 15/21/72 29/37/73 27/35/74
f 15/21/75 16/22/76 30/38/77 29/37/78
f 16/22/79 18/24/80 28/36/81 30/38/82
f 25/33/83 26/34/84 32/40/85 31/39/86
f 26/34/87 27/35/88 33/41/89 32/40/90
f 28/36/91 25/33/92 31/39/93 34/42/94
f 27/35/95 29/37/96 35/43/97 33/41/98
f 29/37/99 30/38/100 36/44/101 35/43/102
f 30/38/103 28/36/104 34/42/105 36/44/106
