# This file uses centimeters as units for non-parametric coordinates.

mtllib Tree_Tall.mtl
g default
v 0.178186 -0.292471 0.234011
v 0.094143 -0.285021 0.025722
v -0.058487 -0.275862 -0.061256
v -0.224553 -0.267825 -0.000642
v -0.341721 -0.262616 0.183574
v -0.360729 -0.260848 0.425711
v -0.271225 -0.260063 0.621916
v -0.112334 -0.264764 0.699762
v 0.053816 -0.277315 0.643860
v 0.164270 -0.289800 0.471436
v 0.338735 2.799918 0.089520
v 0.201363 2.743628 -0.150035
v -0.065907 2.774403 -0.118701
v -0.302820 2.829463 0.068369
v -0.402077 2.914095 0.299181
v -0.371955 2.957835 0.487967
v -0.260838 2.959132 0.585302
v -0.089354 2.898884 0.608906
v 0.151604 2.844589 0.521286
v 0.322099 2.841217 0.364972
v 2.301683 3.940758 -0.748110
v 1.139528 4.262189 -1.566938
v -0.331416 4.012169 -2.140243
v -1.215757 3.350373 -1.005110
v -2.431080 3.756549 -0.462750
v -1.951401 4.059263 1.126581
v -1.105645 3.656326 2.021464
v 0.283416 4.239125 2.749671
v 1.583112 4.775137 2.381412
v 2.442635 4.518441 1.195966
v 1.875332 3.604095 0.997410
v 1.292953 3.510561 1.869788
v 0.157861 3.320343 1.843208
v -1.003396 3.375326 1.709111
v -1.801655 3.807012 1.096804
v -1.805129 3.263219 -0.063542
v -0.751904 3.069118 -0.880518
v -0.096753 3.509086 -1.897139
v 1.110321 3.469743 -1.570115
v 1.782150 3.382276 -0.585301
v 1.262230 3.084258 0.703108
v 0.964796 3.151104 1.407422
v 0.062927 3.071347 1.333619
v -0.772480 3.195908 1.298002
v -1.604130 3.547533 0.941101
v -1.406079 3.206991 0.199676
v -0.654756 3.222320 -0.557781
v -0.082118 3.109904 -1.551172
v 0.847785 3.121625 -1.214075
v 1.189241 3.291566 -0.211169
v 0.842218 2.934994 0.360887
v 0.483425 2.878017 0.747996
v 0.021319 2.889434 0.955497
v -0.529718 2.898240 0.975139
v -1.022934 3.027320 0.803468
v -0.932165 2.874014 0.279638
v -0.600299 2.925727 -0.271065
v -0.101392 2.805160 -0.622621
v 0.412332 3.025096 -0.392904
v 0.796837 3.186084 0.026106
v 0.195953 2.320044 -0.102298
v 0.202509 2.299818 0.032432
v 0.130287 2.290209 0.162192
v 0.003811 2.288334 0.240426
v -0.128792 2.286327 0.235994
v -0.215970 2.275967 0.146703
v -0.222152 2.267486 0.002263
v -0.146378 2.273773 -0.137143
v -0.019490 2.295891 -0.211849
v 0.110873 2.317728 -0.196622
v 0.212422 1.163887 0.155480
v 0.169227 1.156515 0.333545
v 0.036895 1.152776 0.478334
v -0.137126 1.150765 0.539042
v -0.297150 1.143473 0.489325
v -0.379898 1.133355 0.346791
v -0.342675 1.129120 0.169682
v -0.196501 1.138577 0.025076
v -0.009205 1.157128 -0.037284
v 0.144507 1.167038 0.010620
v 1.928818 7.433653 -0.719191
v 1.088122 6.126466 -2.303651
v -0.319296 6.653933 -2.628860
v -2.488315 6.431046 -1.292668
v -2.907867 6.012604 -0.376428
v -2.254472 5.581910 1.075861
v -1.217896 6.587204 2.292174
v -0.095636 6.238511 2.814397
v 1.038964 7.400589 2.299103
v 2.299754 7.318594 1.238212
v 1.611297 8.939919 -1.237055
v 0.186483 8.404329 -2.165148
v -1.417883 8.251071 -2.402541
v -2.799305 8.499566 -1.139184
v -3.162093 7.919197 0.218270
v -2.450777 8.324650 1.348529
v -1.672776 8.183750 2.222181
v -0.419787 8.311166 2.417120
v 0.964460 8.726467 2.233538
v 1.718315 8.904944 1.561924
v 0.940457 10.679500 -0.324075
v 0.418088 9.515125 -1.716879
v -1.120229 8.989098 -2.200762
v -2.519270 9.083804 -1.140899
v -2.914595 9.271919 -0.042157
v -2.413225 9.362256 0.984456
v -1.736567 9.588491 1.490776
v -0.939547 9.405471 1.868736
v 0.189755 9.761836 1.559641
v 1.115587 10.427864 0.835451
v -0.250281 13.598825 -0.314622
v -0.838811 13.756537 -0.708293
v -1.328084 13.656366 -0.710879
v -1.551518 13.479280 -0.582570
v -1.571327 13.471114 -0.351330
v -1.391552 13.623903 -0.023645
v -1.185487 13.753998 0.166884
v -1.010185 13.902001 0.190013
v -0.736709 13.853374 0.347675
v -0.369104 13.689501 0.182457
v -0.849110 14.532952 -0.434264
v -0.953478 14.493945 -0.551925
v -1.111242 14.436003 -0.606085
v -1.242204 14.384238 -0.570246
v -1.306328 14.355747 -0.457217
v -1.283732 14.372009 -0.311001
v -1.191087 14.439694 -0.184624
v -1.059126 14.507116 -0.132280
v -0.927207 14.547376 -0.182987
v -0.844305 14.553523 -0.298003
v -1.049349 14.621996 -0.351458
v 0.267191 12.975455 -0.401085
v 0.270642 12.920910 0.438893
v -0.194014 12.853098 0.916321
v -0.636924 12.850549 0.869586
v -1.032423 12.592654 0.744613
v -1.407132 12.425089 0.464686
v -1.740717 12.275474 -0.087520
v -1.640278 12.421065 -0.617164
v -1.357481 12.720569 -0.927235
v -0.486238 12.986387 -1.007249
v -0.877799 10.051102 -1.542058
v -0.196310 11.163079 -1.258429
v 0.692847 11.670295 -0.616996
v 0.776902 11.146675 0.552385
v -0.034833 10.749066 1.182006
v -0.902559 10.293942 1.459510
v -1.625435 10.263241 1.024363
v -1.779440 10.317826 0.458447
v -2.480552 9.848707 -0.378414
v -2.082897 9.572478 -1.247627
vt 0.954383 0.726059
vt 0.944522 0.726023
vt 0.945319 0.635862
vt 0.955165 0.635948
vt 0.947331 0.818859
vt 0.937863 0.819488
vt 0.934664 0.725948
vt 0.935474 0.635996
vt 0.964245 0.726205
vt 0.965009 0.636255
vt 0.954296 0.892183
vt 0.939637 0.887943
vt 0.928442 0.820610
vt 0.957089 0.818686
vt 0.924713 0.879426
vt 0.966578 0.891805
vt 0.024749 0.692935
vt 0.015228 0.693122
vt 0.013074 0.605892
vt 0.022638 0.605658
vt 0.031445 0.789191
vt 0.022602 0.787721
vt 0.005677 0.693318
vt 0.003516 0.605910
vt 0.034276 0.692635
vt 0.032185 0.605211
vt 0.031141 0.841788
vt 0.014949 0.847533
vt 0.013595 0.785258
vt 0.040769 0.788381
vt 0.000000 0.844494
vt 0.047901 0.832077
vt 0.061736 0.857537
vt 0.028705 0.878588
vt 0.891673 0.582840
vt 0.925237 0.660127
vt 0.906977 0.663138
vt 0.868670 0.602090
vt 0.929539 0.770977
vt 0.886514 0.751105
vt 0.895142 0.483742
vt 0.906927 0.401902
vt 0.879609 0.564638
vt 0.925170 0.622623
vt 0.048098 0.368073
vt 0.041332 0.283885
vt 0.026588 0.444332
vt 0.069179 0.506985
vt 0.063049 0.902183
vt 0.063494 0.848275
vt 0.080640 0.786409
vt 0.083214 0.975702
vt 0.847044 0.510671
vt 0.819927 0.513901
vt 0.869201 0.510389
vt 0.816427 0.544380
vt 0.837081 0.544992
vt 0.798756 0.520401
vt 0.853504 0.549694
vt 0.804960 0.548000
vt 0.834895 0.595673
vt 0.825214 0.596060
vt 0.844804 0.600391
vt 0.817478 0.599904
vt 0.835153 0.618431
vt 0.636368 0.813810
vt 0.606465 0.814335
vt 0.661154 0.822483
vt 0.611965 0.845025
vt 0.636159 0.840375
vt 0.577946 0.824096
vt 0.658550 0.853849
vt 0.593136 0.861919
vt 0.631411 0.905948
vt 0.622410 0.906883
vt 0.641584 0.907008
vt 0.613781 0.910188
vt 0.623424 0.924639
vt 0.193516 0.162381
vt 0.176096 0.156736
vt 0.173464 0.121500
vt 0.213226 0.142143
vt 0.159124 0.162529
vt 0.137006 0.134930
vt 0.168043 0.060394
vt 0.234668 0.096978
vt 0.151048 0.177678
vt 0.108238 0.171236
vt 0.131950 0.107135
vt 0.167162 0.029940
vt 0.249283 0.070812
vt 0.240088 0.171310
vt 0.264214 0.159810
vt 0.152750 0.192642
vt 0.098016 0.214073
vt 0.072403 0.161853
vt 0.122060 0.084590
vt 0.297980 0.137801
vt 0.243979 0.196840
vt 0.271156 0.216150
vt 0.160270 0.202172
vt 0.131294 0.239143
vt 0.053165 0.227065
vt 0.044956 0.144344
vt 0.093146 0.066689
vt 0.153772 0.000000
vt 0.308788 0.226785
vt 0.205584 0.195806
vt 0.204570 0.177464
vt 0.217507 0.223769
vt 0.246360 0.262914
vt 0.173117 0.207420
vt 0.176778 0.242493
vt 0.109540 0.269483
vt 0.036745 0.246522
vt 0.000000 0.116901
vt 0.333708 0.125698
vt 0.346250 0.236785
vt 0.261742 0.293395
vt 0.192195 0.205370
vt 0.177391 0.275121
vt 0.091671 0.307707
vt 0.285008 0.329509
vt 0.181230 0.315042
vt 0.197686 0.382248
vt 0.093216 0.341030
vt 0.428601 0.319546
vt 0.343265 0.256372
vt 0.371220 0.135478
vt 0.497859 0.377510
vt 0.422210 0.055076
vt 0.598064 0.331703
vt 0.526154 0.011809
vt 0.618892 0.053382
vt 0.686710 0.139468
vt 0.682752 0.253064
vt 0.708609 0.374613
vt 0.750981 0.464224
vt 0.651696 0.370840
vt 0.525712 0.385259
vt 0.770897 0.564371
vt 0.708710 0.623283
vt 0.458854 0.455515
vt 0.620969 0.686320
vt 0.474446 0.559991
vt 0.528179 0.632427
vt 0.216652 0.405479
vt 0.277265 0.337796
vt 0.362024 0.273719
vt 0.185643 0.506488
vt 0.437154 0.349236
vt 0.388523 0.599705
vt 0.263297 0.584934
vt 0.443989 0.615278
vt 0.212334 0.569399
vt 0.276784 0.589709
vt 0.134896 0.505414
vt 0.263293 0.682326
vt 0.054968 0.513126
vt 0.218119 0.757126
vt 0.000000 0.582983
vt 0.149370 0.796016
vt 0.048380 0.781198
vt 0.523068 0.629353
vt 0.563665 0.703863
vt 0.578069 0.795668
vt 0.456275 0.589734
vt 0.520967 0.831779
vt 0.440311 0.885030
vt 0.361167 0.883086
vt 0.832725 0.640275
vt 0.876941 0.700719
vt 0.759645 0.613894
vt 0.884887 0.762538
vt 0.688747 0.639671
vt 0.830185 0.831272
vt 0.647270 0.703808
vt 0.759249 0.860394
vt 0.644497 0.775197
vt 0.694811 0.831411
vt 0.746227 0.040088
vt 0.797834 0.000000
vt 0.868963 0.011038
vt 0.683027 0.082035
vt 0.692481 0.154968
vt 0.717463 0.223718
vt 0.875389 0.221157
vt 0.809220 0.256959
vt 0.456810 0.000000
vt 0.463316 0.007681
vt 0.444843 0.015203
vt 0.466302 0.018136
vt 0.465025 0.026901
vt 0.345493 0.819004
vt 0.320218 0.885231
vt 0.290547 0.787798
vt 0.303773 0.945101
vt 0.251801 0.760181
vt 0.245107 0.957800
vt 0.190269 0.774045
vt 0.169707 0.903901
vt 0.157622 0.815508
vt 0.170268 0.870166
vt 0.889818 0.332931
vt 0.910410 0.398783
vt 0.877134 0.275091
vt 0.854092 0.425065
vt 0.818315 0.456092
vt 0.736203 0.315545
vt 0.801885 0.253922
vt 0.755998 0.444565
vt 0.741073 0.348118
vt 0.725059 0.401316
vt 0.967601 0.337828
vt 0.977905 0.337986
vt 0.973796 0.432047
vt 0.963493 0.431978
vt 0.966082 0.235848
vt 0.976736 0.234282
vt 0.957290 0.337848
vt 0.953185 0.431911
vt 0.967807 0.182294
vt 0.987652 0.187089
vt 0.955893 0.238469
vt 0.949232 0.177116
vt 0.984024 0.525920
vt 0.973750 0.526070
vt 0.969984 0.432069
vt 0.980272 0.432037
vt 0.981984 0.623961
vt 0.971587 0.622984
vt 0.994299 0.526016
vt 0.990568 0.432007
vt 0.981100 0.695592
vt 0.966746 0.699755
vt 0.992333 0.625477
vt 1.000000 0.690950
vt 0.898509 0.307830
vt 0.909594 0.210148
vt 0.940992 0.214560
vt 0.924358 0.293691
vt 0.927604 0.126124
vt 0.956671 0.143441
vt 0.000000 0.093191
vt 0.022636 0.004070
vt 0.653508 0.000000
vt 0.653457 0.070966
vt 0.929713 0.084901
vt 0.965798 0.090904
vt 0.910738 0.085296
vt 0.954136 0.060363
vt 0.928875 0.055927
vt 0.915194 0.056364
vt 0.935510 0.001587
vt 0.947449 0.000000
vt 0.925704 0.001810
vt 0.362196 0.033341
vt 0.340612 0.028127
vt 0.381817 0.033801
vt 0.338478 0.069680
vt 0.350252 0.075644
vt 0.365843 0.072200
vt 0.347333 0.123456
vt 0.337426 0.121500
vt 0.356748 0.126238
vt 0.345159 0.140945
vt 0.686530 0.057170
vt 0.692020 0.000000
vt 0.246953 0.067662
vt 0.213665 0.001210
vt 0.381795 0.073445
vt 0.394004 0.000000
vn 0.680625 -0.070871 -0.729196
vn 0.989193 -0.023437 -0.144733
vn 0.993401 -0.020642 -0.112817
vn 0.734098 -0.028520 -0.678445
vn -0.023119 -0.060852 -0.997879
vn 0.025013 0.008459 -0.999651
vn -0.601784 -0.020343 -0.798400
vn -0.585021 0.018307 -0.810811
vn -0.924847 0.017170 -0.379952
vn -0.918985 -0.000670 -0.394291
vn -0.979636 0.068622 0.188689
vn -0.986795 0.004031 0.161925
vn -0.632218 0.135777 0.762801
vn -0.671691 0.058823 0.738493
vn 0.036309 0.162758 0.985998
vn 0.003742 0.108582 0.994081
vn 0.601995 0.122740 0.789010
vn 0.598963 0.092288 0.795441
vn 0.921849 0.049673 0.384354
vn 0.922141 0.033346 0.385414
vn 0.536486 -0.796403 -0.279150
vn 0.465658 -0.837951 -0.284608
vn 0.313915 -0.943443 -0.106640
vn 0.364086 -0.920915 -0.139130
vn -0.056735 -0.987428 -0.147539
vn -0.115880 -0.960823 -0.251774
vn -0.160758 -0.986829 -0.018041
vn -0.469466 -0.822342 -0.321488
vn -0.012985 -0.990314 0.138238
vn -0.433668 -0.897623 -0.078777
vn -0.038788 -0.996526 0.073701
vn -0.477128 -0.826416 0.298975
vn -0.115017 -0.983443 -0.140036
vn -0.218511 -0.912365 0.346183
vn -0.077918 -0.996625 -0.025822
vn -0.004821 -0.939867 0.341507
vn 0.022208 -0.997560 0.066192
vn 0.153788 -0.962980 0.221404
vn 0.258207 -0.958845 -0.118088
vn 0.306029 -0.946662 -0.100885
vn 0.591143 -0.134202 -0.795324
vn 0.939038 -0.089850 -0.331866
vn 0.695306 -0.690882 -0.198069
vn 0.453693 -0.483042 -0.748888
vn -0.323652 -0.274288 -0.905547
vn 0.028677 -0.506396 -0.861824
vn -0.576058 -0.370321 -0.728710
vn -0.328530 -0.858749 -0.393216
vn -0.890522 -0.341808 -0.300229
vn -0.524877 -0.850515 0.033583
vn -0.829143 -0.203687 0.520608
vn -0.676363 -0.655301 0.336322
vn -0.528847 -0.261419 0.807453
vn -0.281553 -0.782152 0.555847
vn -0.046559 -0.198384 0.979018
vn 0.079541 -0.727430 0.681556
vn 0.571358 -0.046488 0.819383
vn 0.474623 -0.604078 0.640175
vn 0.981220 -0.033380 0.189981
vn 0.725956 -0.633887 0.266787
vn 0.297492 -0.882531 0.364195
vn 0.428700 -0.900022 0.078589
vn -0.005771 -0.895255 0.445516
vn -0.301628 -0.857456 0.416882
vn -0.524881 -0.803669 0.280386
vn -0.405363 -0.908033 0.105631
vn -0.350178 -0.914985 -0.200446
vn 0.036668 -0.900048 -0.434246
vn 0.281636 -0.915606 -0.286962
vn 0.388274 -0.919682 -0.058557
vn 0.967043 -0.223757 -0.121495
vn 0.808429 -0.409811 0.422491
vn 0.944913 -0.094890 0.313267
vn 0.954418 -0.092883 -0.283654
vn 0.449971 -0.488831 0.747376
vn 0.641232 -0.097431 0.761137
vn 0.014285 -0.513207 0.858146
vn 0.157236 -0.080633 0.984264
vn -0.404731 -0.495250 0.768713
vn -0.493729 -0.058153 0.867669
vn -0.756287 -0.426548 0.496072
vn -0.956499 -0.042772 0.288584
vn -0.965947 -0.258738 0.001368
vn -0.936638 -0.039655 -0.348046
vn -0.835077 -0.021522 -0.549712
vn -0.636243 -0.042523 -0.770316
vn -0.396513 0.138598 -0.907507
vn -0.172458 -0.045610 -0.983960
vn 0.516994 0.033016 -0.855352
vn 0.495739 -0.058305 -0.866512
vn 0.558086 -0.040834 -0.828778
vn 0.921231 0.141069 -0.362537
vn -0.223017 -0.104128 -0.969237
vn -0.680291 -0.178906 -0.710772
vn -0.974328 -0.204023 -0.095186
vn -0.832272 -0.153528 0.532685
vn -0.553447 -0.074546 0.829542
vn -0.067670 0.011764 0.997638
vn 0.484382 0.108997 0.868040
vn 0.970562 0.146693 0.191024
vn 0.426920 0.230740 -0.874356
vn 0.835179 0.308988 -0.454976
vn -0.389606 0.035789 -0.920286
vn -0.795652 0.020074 -0.605421
vn -0.982678 -0.056873 0.176381
vn -0.808944 -0.005254 0.587862
vn -0.550280 0.058419 0.832934
vn -0.057733 0.254597 0.965322
vn 0.333055 0.325581 0.884913
vn 0.875684 0.364177 0.317099
vn 0.877466 0.365918 -0.310093
vn 0.383492 0.394019 -0.835274
vn -0.161485 0.381640 -0.910095
vn -0.729471 0.377611 -0.570335
vn -0.912824 0.393382 0.109560
vn -0.780735 0.394022 0.484975
vn -0.509849 0.429877 0.745157
vn -0.117606 0.449862 0.885321
vn 0.186803 0.510320 0.839451
vn 0.844907 0.466766 0.261270
vn 0.294406 0.260030 -0.919625
vn 0.819133 0.298446 -0.489847
vn -0.211867 0.317322 -0.924348
vn -0.636493 0.357111 -0.683629
vn -0.910101 0.411456 -0.049200
vn -0.815790 0.319048 0.482384
vn -0.632734 0.370705 0.679871
vn -0.175619 0.330653 0.927268
vn 0.301020 0.285541 0.909864
vn 0.815441 0.321357 0.481442
vn 0.729752 0.590757 -0.344193
vn 0.257264 0.351118 -0.900295
vn 0.420177 0.287393 -0.860731
vn 0.785005 0.457932 -0.417212
vn -0.281812 0.231525 -0.931117
vn -0.099440 0.240926 -0.965436
vn -0.883136 0.154874 -0.442815
vn -0.727887 0.323074 -0.604817
vn -0.961152 0.196497 0.193846
vn -0.942344 0.330907 0.049889
vn -0.816788 0.251004 0.519475
vn -0.862516 0.327485 0.385772
vn -0.599211 0.319761 0.733961
vn -0.666391 0.393540 0.633285
vn -0.358252 0.414568 0.836534
vn -0.320473 0.507091 0.800097
vn 0.174556 0.581449 0.794637
vn 0.352294 0.645247 0.677898
vn 0.683050 0.640304 0.351359
vn 0.765035 0.595666 0.244752
vn -0.292601 0.953001 -0.078581
vn 0.829888 0.356839 0.428896
vn 0.822668 0.385225 -0.418114
vn 0.376088 0.267183 0.887227
vn -0.182538 0.263272 0.947295
vn -0.591517 0.251283 0.766136
vn -0.825019 0.202480 0.527585
vn -0.962053 0.228259 0.149504
vn -0.704991 0.221012 -0.673900
vn -0.270365 0.197190 -0.942347
vn 0.252510 0.280738 -0.925972
s 1
g Tree_Tall
usemtl initialShadingGroup
f 80/25/1 71/17/2 1/20/3 2/26/4
f 79/214/5 80/215/1 2/216/4 3/217/6
f 78/220/7 79/214/5 3/217/6 4/221/8
f 77/2/9 78/7/7 4/8/8 5/3/10
f 76/1/11 77/2/9 5/3/10 6/4/12
f 75/9/13 76/1/11 6/4/12 7/10/14
f 74/226/15 75/227/13 7/228/14 8/229/16
f 73/232/17 74/226/15 8/229/16 9/233/18
f 72/18/19 73/23/17 9/24/18 10/19/20
f 71/17/2 72/18/19 10/19/20 1/20/3
s 2
f 11/27/21 12/32/22 59/33/23 60/34/24
f 12/79/22 13/80/25 58/81/26 59/82/23
f 13/80/25 14/83/27 57/84/28 58/81/26
f 14/83/27 15/87/29 56/88/30 57/84/28
f 15/87/29 16/94/31 55/95/32 56/88/30
f 16/94/31 17/101/33 54/102/34 55/95/32
f 17/101/33 18/112/35 53/113/36 54/102/34
f 18/112/35 19/120/37 52/110/38 53/113/36
f 19/120/37 20/108/39 51/99/40 52/110/38
f 20/108/39 11/109/21 60/92/24 51/99/40
f 22/239/41 21/242/42 40/243/43 39/240/44
f 23/238/45 22/239/41 39/240/44 38/241/46
f 24/105/47 23/106/45 38/90/46 37/97/48
f 25/116/49 24/105/47 37/97/48 36/104/50
f 26/36/51 25/39/49 36/40/50 35/37/52
f 27/35/53 26/36/51 35/37/52 34/38/54
f 28/125/55 27/126/53 34/122/54 33/124/56
f 29/123/57 28/125/55 33/124/56 32/119/58
f 30/118/59 29/123/57 32/119/58 31/107/60
f 21/117/42 30/118/59 31/107/60 40/98/43
f 42/111/61 41/100/62 31/107/60 32/119/58
f 43/121/63 42/111/61 32/119/58 33/124/56
f 44/114/64 43/121/63 33/124/56 34/122/54
f 45/103/65 44/114/64 34/122/54 35/115/52
f 46/96/66 45/103/65 35/115/52 36/104/50
f 47/89/67 46/96/66 36/104/50 37/97/48
f 48/85/68 47/89/67 37/97/48 38/90/46
f 49/86/69 48/85/68 38/90/46 39/91/44
f 50/93/70 49/86/69 39/91/44 40/98/43
f 41/100/62 50/93/70 40/98/43 31/107/60
f 52/110/38 51/99/40 41/100/62 42/111/61
f 53/113/36 52/110/38 42/111/61 43/121/63
f 54/102/34 53/113/36 43/121/63 44/114/64
f 55/95/32 54/102/34 44/114/64 45/103/65
f 56/88/30 55/95/32 45/103/65 46/96/66
f 57/84/28 56/88/30 46/96/66 47/89/67
f 58/81/26 57/84/28 47/89/67 48/85/68
f 59/82/23 58/81/26 48/85/68 49/86/69
f 60/92/24 59/82/23 49/86/69 50/93/70
f 51/99/40 60/92/24 50/93/70 41/100/62
s 1
f 11/27/71 20/28/72 62/22/73 61/21/74
f 20/28/72 19/31/75 63/29/76 62/22/73
f 19/237/75 18/234/77 64/230/78 63/236/76
f 18/234/77 17/235/79 65/231/80 64/230/78
f 17/16/79 16/11/81 66/5/82 65/14/80
f 16/11/81 15/12/83 67/6/84 66/5/82
f 15/12/83 14/15/85 68/13/86 67/6/84
f 14/225/85 13/222/87 69/218/88 68/224/86
f 13/222/87 12/223/89 70/219/90 69/218/88
f 12/32/89 11/27/71 61/21/74 70/30/90
f 61/21/74 62/22/73 72/18/19 71/17/2
f 62/22/73 63/29/76 73/23/17 72/18/19
f 63/236/76 64/230/78 74/226/15 73/232/17
f 64/230/78 65/231/80 75/227/13 74/226/15
f 65/14/80 66/5/82 76/1/11 75/9/13
f 66/5/82 67/6/84 77/2/9 76/1/11
f 67/6/84 68/13/86 78/7/7 77/2/9
f 68/224/86 69/218/88 79/214/5 78/220/7
f 69/218/88 70/219/90 80/215/1 79/214/5
f 70/30/90 61/21/74 71/17/2 80/25/1
s 2
f 82/137/91 81/138/92 21/242/42 22/239/41
f 83/139/93 82/137/91 22/132/41 23/130/45
f 84/140/94 83/139/93 23/130/45 24/127/47
f 85/143/95 84/140/94 24/127/47 25/128/49
f 86/145/96 85/143/95 25/128/49 26/129/51
f 87/146/97 86/145/96 26/129/51 27/131/53
f 88/144/98 87/146/97 27/131/53 28/133/55
f 89/142/99 88/144/98 28/133/55 29/134/57
f 90/141/100 89/142/99 29/134/57 30/135/59
f 81/41/92 90/43/100 30/135/59 21/136/42
f 81/41/92 82/42/91 92/155/101 91/156/102
f 82/154/91 83/152/93 93/157/103 92/155/101
f 83/152/93 84/153/94 94/159/104 93/157/103
f 94/159/104 84/269/94 85/270/95 95/161/105
f 85/150/95 86/147/96 96/45/106 95/47/105
f 86/147/96 87/148/97 97/46/107 96/45/106
f 87/148/97 88/149/98 98/162/108 97/163/107
f 88/149/98 89/151/99 99/160/109 98/162/108
f 89/44/99 90/43/100 100/158/110 99/160/109
f 90/43/100 81/41/92 91/156/102 100/158/110
f 101/172/111 91/166/102 92/168/101 102/171/112
f 92/271/101 93/272/103 103/173/113 102/171/112
f 93/169/103 94/170/104 104/175/114 103/173/113
f 94/48/104 95/47/105 105/177/115 104/175/114
f 95/47/105 96/45/106 106/179/116 105/177/115
f 96/45/106 97/46/107 107/180/117 106/179/116
f 97/244/107 98/245/108 108/178/118 107/180/117
f 98/167/108 99/164/109 109/176/119 108/178/118
f 99/164/109 100/165/110 110/174/120 109/176/119
f 100/165/110 91/166/102 101/172/111 110/174/120
f 101/50/111 102/51/112 143/196/121 144/194/122
f 143/196/121 102/187/112 103/188/113 142/198/123
f 103/246/113 104/247/114 151/200/124 142/198/123
f 104/186/114 105/185/115 150/202/125 151/200/124
f 105/185/115 106/184/116 149/203/126 150/202/125
f 106/184/116 107/181/117 148/201/127 149/203/126
f 107/181/117 108/182/118 147/199/128 148/201/127
f 108/182/118 109/183/119 146/197/129 147/199/128
f 109/52/119 110/49/120 145/195/130 146/197/129
f 110/49/120 101/50/111 144/194/122 145/195/130
f 111/70/131 112/72/132 122/76/133 121/74/134
f 112/251/132 113/252/135 123/254/136 122/255/133
f 113/252/135 114/253/137 124/256/138 123/254/136
f 114/60/137 115/56/139 125/62/140 124/64/138
f 115/56/139 116/57/141 126/61/142 125/62/140
f 116/57/141 117/59/143 127/63/144 126/61/142
f 117/260/143 118/261/145 128/263/146 127/264/144
f 118/261/145 119/262/147 129/265/148 128/263/146
f 119/73/147 120/69/149 130/75/150 129/77/148
f 120/69/149 111/70/131 121/74/134 130/75/150
f 121/189/134 122/190/133 131/191/151
f 122/190/133 123/192/136 131/191/151
f 123/192/136 124/193/138 131/191/151
f 124/64/138 125/62/140 131/65/151
f 125/62/140 126/61/142 131/65/151
f 126/61/142 127/63/144 131/65/151
f 127/264/144 128/263/146 131/266/151
f 128/263/146 129/265/148 131/266/151
f 129/77/148 130/75/150 131/78/151
f 130/75/150 121/74/134 131/78/151
f 120/69/149 133/67/152 132/66/153 111/70/131
f 119/73/147 134/71/154 133/67/152 120/69/149
f 118/261/145 135/257/155 134/259/154 119/262/147
f 117/260/143 136/258/156 135/257/155 118/261/145
f 116/57/141 137/53/157 136/55/156 117/59/143
f 115/56/139 138/54/158 137/53/157 116/57/141
f 114/60/137 139/58/159 138/54/158 115/56/139
f 113/252/135 140/248/160 139/250/159 114/253/137
f 112/251/132 141/249/161 140/248/160 113/252/135
f 111/70/131 132/66/153 141/68/161 112/72/132
f 132/66/153 133/67/152 145/204/130 144/205/122
f 133/67/152 134/71/154 146/206/129 145/204/130
f 134/259/154 135/257/155 147/267/128 146/268/129
f 135/257/155 136/258/156 148/209/127 147/210/128
f 136/55/156 137/53/157 149/212/126 148/209/127
f 137/53/157 138/54/158 150/213/125 149/212/126
f 138/54/158 139/58/159 151/211/124 150/213/125
f 139/250/159 140/248/160 142/208/123 151/211/124
f 140/248/160 141/249/161 143/207/121 142/208/123
f 143/207/121 141/68/161 132/66/153 144/205/122
